<svg width="776" height="164" viewBox="0 0 776 164" fill="none" xmlns="http://www.w3.org/2000/svg">
<rect width="776" height="164" fill="#14141C"/>
<path d="M23.8523 44.1193C23.2898 44.1193 22.7884 44.0227 22.348 43.8295C21.9105 43.6364 21.5625 43.3679 21.304 43.0241C21.0483 42.6776 20.9091 42.2756 20.8864 41.8182H21.9602C21.983 42.0994 22.0795 42.3423 22.25 42.5469C22.4205 42.7486 22.6435 42.9048 22.919 43.0156C23.1946 43.1264 23.5 43.1818 23.8352 43.1818C24.2102 43.1818 24.5426 43.1165 24.8324 42.9858C25.1222 42.8551 25.3494 42.6733 25.5142 42.4403C25.679 42.2074 25.7614 41.9375 25.7614 41.6307C25.7614 41.3097 25.6818 41.027 25.5227 40.7827C25.3636 40.5355 25.1307 40.3423 24.8239 40.2031C24.517 40.0639 24.142 39.9943 23.6989 39.9943H23V39.0568H23.6989C24.0455 39.0568 24.3494 38.9943 24.6108 38.8693C24.875 38.7443 25.081 38.5682 25.2287 38.3409C25.3793 38.1136 25.4545 37.8466 25.4545 37.5398C25.4545 37.2443 25.3892 36.9872 25.2585 36.7685C25.1278 36.5497 24.9432 36.3793 24.7045 36.2571C24.4688 36.1349 24.1903 36.0739 23.8693 36.0739C23.5682 36.0739 23.2841 36.1293 23.017 36.2401C22.7528 36.348 22.5369 36.5057 22.3693 36.7131C22.2017 36.9176 22.1108 37.1648 22.0966 37.4545H21.0739C21.0909 36.9972 21.2287 36.5966 21.4872 36.2528C21.7457 35.9062 22.0838 35.6364 22.5014 35.4432C22.9219 35.25 23.3835 35.1534 23.8864 35.1534C24.4261 35.1534 24.8892 35.2628 25.2756 35.4815C25.6619 35.6974 25.9588 35.983 26.1662 36.3381C26.3736 36.6932 26.4773 37.0767 26.4773 37.4886C26.4773 37.9801 26.348 38.3991 26.0895 38.7457C25.8338 39.0923 25.4858 39.3324 25.0455 39.4659V39.5341C25.5966 39.625 26.027 39.8594 26.3366 40.2372C26.6463 40.6122 26.8011 41.0767 26.8011 41.6307C26.8011 42.1051 26.6719 42.5312 26.4134 42.9091C26.1577 43.2841 25.8082 43.5795 25.3651 43.7955C24.9219 44.0114 24.4176 44.1193 23.8523 44.1193Z" fill="white" fill-opacity="0.8"/>
<path d="M20.9034 67.3334V66.5663L23.7841 63.4129C24.1222 63.0436 24.4006 62.7226 24.6193 62.4499C24.8381 62.1743 25 61.9158 25.1051 61.6743C25.2131 61.43 25.267 61.1743 25.267 60.9072C25.267 60.6004 25.1932 60.3348 25.0455 60.1104C24.9006 59.8859 24.7017 59.7126 24.4489 59.5905C24.196 59.4683 23.9119 59.4072 23.5966 59.4072C23.2614 59.4072 22.9688 59.4768 22.7188 59.616C22.4716 59.7524 22.2798 59.9442 22.1435 60.1913C22.0099 60.4385 21.9432 60.7283 21.9432 61.0606H20.9375C20.9375 60.5493 21.0554 60.1004 21.2912 59.7141C21.527 59.3277 21.848 59.0266 22.2543 58.8106C22.6634 58.5947 23.1222 58.4868 23.6307 58.4868C24.142 58.4868 24.5952 58.5947 24.9901 58.8106C25.3849 59.0266 25.6946 59.3177 25.919 59.6842C26.1435 60.0507 26.2557 60.4584 26.2557 60.9072C26.2557 61.2283 26.1974 61.5422 26.081 61.849C25.9673 62.153 25.7685 62.4925 25.4844 62.8675C25.2031 63.2396 24.8125 63.6942 24.3125 64.2311L22.3523 66.3277V66.3959H26.4091V67.3334H20.9034Z" fill="white" fill-opacity="0.8"/>
<path d="M25.9716 81.9394V90.6666H24.9148V83.0473H24.8636L22.733 84.4621V83.3882L24.9148 81.9394H25.9716Z" fill="white" fill-opacity="0.8"/>
<path d="M23.75 114.119C23.108 114.119 22.5611 113.945 22.1094 113.595C21.6577 113.243 21.3125 112.733 21.0739 112.065C20.8352 111.395 20.7159 110.585 20.7159 109.636C20.7159 108.693 20.8352 107.888 21.0739 107.22C21.3153 106.55 21.6619 106.038 22.1136 105.686C22.5682 105.331 23.1136 105.153 23.75 105.153C24.3864 105.153 24.9304 105.331 25.3821 105.686C25.8366 106.038 26.1832 106.55 26.4219 107.22C26.6634 107.888 26.7841 108.693 26.7841 109.636C26.7841 110.585 26.6648 111.395 26.4261 112.065C26.1875 112.733 25.8423 113.243 25.3906 113.595C24.9389 113.945 24.392 114.119 23.75 114.119ZM23.75 113.182C24.3864 113.182 24.8807 112.875 25.233 112.261C25.5852 111.648 25.7614 110.773 25.7614 109.636C25.7614 108.881 25.6804 108.237 25.5185 107.706C25.3594 107.175 25.1293 106.77 24.8281 106.491C24.5298 106.213 24.1705 106.074 23.75 106.074C23.1193 106.074 22.6264 106.385 22.2713 107.007C21.9162 107.626 21.7386 108.503 21.7386 109.636C21.7386 110.392 21.8182 111.034 21.9773 111.562C22.1364 112.091 22.3651 112.493 22.6634 112.768C22.9645 113.044 23.3267 113.182 23.75 113.182Z" fill="white" fill-opacity="0.8"/>
<line x1="33" y1="37.5" x2="759" y2="37.5" stroke="#D9D9FF" stroke-opacity="0.25" stroke-dasharray="2"/>
<line x1="33" y1="61.8334" x2="759" y2="61.8334" stroke="#D9D9FF" stroke-opacity="0.25" stroke-dasharray="2"/>
<line x1="33" y1="86.1666" x2="759" y2="86.1666" stroke="#D9D9FF" stroke-opacity="0.25" stroke-dasharray="2"/>
<line x1="33" y1="110.5" x2="759" y2="110.5" stroke="#D9D9FF" stroke-opacity="0.5"/>
<line x1="32.5" y1="111" x2="32.5" y2="38" stroke="#D9D9FF" stroke-opacity="0.25" stroke-dasharray="2"/>
<line x1="274.5" y1="111" x2="274.5" y2="38" stroke="#D9D9FF" stroke-opacity="0.25" stroke-dasharray="2"/>
<line x1="516.5" y1="111" x2="516.5" y2="38" stroke="#D9D9FF" stroke-opacity="0.25" stroke-dasharray="2"/>
<line x1="758.5" y1="111" x2="758.5" y2="38" stroke="#D9D9FF" stroke-opacity="0.25" stroke-dasharray="2"/>
<path d="M638.667 43.7333C517.333 43.7333 517.333 110 396 110H638.667V43.7333Z" fill="url(#paint0_linear_10_3816)"/>
<g filter="url(#filter0_ddd_10_3816)">
<path d="M153.333 110C274.667 110 274.667 110 396 110C517.333 110 517.333 43.7333 638.667 43.7333M638.667 43.7333V43.7333Z" stroke="#FFAE4C"/>
</g>
<circle cx="153.333" cy="110" r="3.5" fill="#1A1F26" stroke="#FFAE4C"/>
<circle cx="396" cy="110" r="3.5" fill="#1A1F26" stroke="#FFAE4C"/>
<circle cx="638.667" cy="43.7333" r="3.5" fill="#1A1F26" stroke="#FFAE4C"/>
<path d="M396 62.1934C274.667 62.1934 274.667 110 153.333 110H638.667V59.1167C517.333 59.1167 517.333 62.1934 396 62.1934Z" fill="url(#paint1_linear_10_3816)"/>
<g filter="url(#filter1_ddd_10_3816)">
<path d="M153.333 110C274.667 110 274.667 62.1934 396 62.1934C517.333 62.1934 517.333 59.1167 638.667 59.1167M638.667 59.1167V59.1167Z" stroke="#3CC3DF"/>
</g>
<circle cx="153.333" cy="110" r="3.5" fill="#1A1F26" stroke="#3CC3DF"/>
<circle cx="396" cy="62.1934" r="3.5" fill="#1A1F26" stroke="#3CC3DF"/>
<circle cx="638.667" cy="59.1167" r="3.5" fill="#1A1F26" stroke="#3CC3DF"/>
<g filter="url(#filter2_ddd_10_3816)">
<path d="M153.333 110C274.667 110 274.667 110 396 110C517.333 110 517.333 110 638.667 110M638.667 110V110Z" stroke="#FF928A"/>
</g>
<circle cx="153.333" cy="110" r="3.5" fill="#1A1F26" stroke="#FF928A"/>
<circle cx="396" cy="110" r="3.5" fill="#1A1F26" stroke="#FF928A"/>
<circle cx="638.667" cy="110" r="3.5" fill="#1A1F26" stroke="#FF928A"/>
<path d="M638.667 61.72C517.333 61.72 517.333 110 396 110H638.667V61.72Z" fill="url(#paint2_linear_10_3816)"/>
<g filter="url(#filter3_ddd_10_3816)">
<path d="M153.333 110C274.667 110 274.667 110 396 110C517.333 110 517.333 61.72 638.667 61.72M638.667 61.72V61.72Z" stroke="#8979FF"/>
</g>
<circle cx="153.333" cy="110" r="3.5" fill="#1A1F26" stroke="#8979FF"/>
<circle cx="396" cy="110" r="3.5" fill="#1A1F26" stroke="#8979FF"/>
<circle cx="638.667" cy="61.72" r="3.5" fill="#1A1F26" stroke="#8979FF"/>
<path d="M154.516 118.273V127H153.459V119.381H153.408L151.277 120.795V119.722L153.459 118.273H154.516Z" fill="white" fill-opacity="0.8"/>
<path d="M393.271 127V126.233L396.151 123.08C396.489 122.71 396.768 122.389 396.987 122.116C397.205 121.841 397.367 121.582 397.472 121.341C397.58 121.097 397.634 120.841 397.634 120.574C397.634 120.267 397.56 120.001 397.413 119.777C397.268 119.553 397.069 119.379 396.816 119.257C396.563 119.135 396.279 119.074 395.964 119.074C395.629 119.074 395.336 119.143 395.086 119.283C394.839 119.419 394.647 119.611 394.511 119.858C394.377 120.105 394.31 120.395 394.31 120.727H393.305C393.305 120.216 393.423 119.767 393.658 119.381C393.894 118.994 394.215 118.693 394.621 118.477C395.031 118.261 395.489 118.153 395.998 118.153C396.509 118.153 396.962 118.261 397.357 118.477C397.752 118.693 398.062 118.984 398.286 119.351C398.511 119.717 398.623 120.125 398.623 120.574C398.623 120.895 398.565 121.209 398.448 121.516C398.335 121.82 398.136 122.159 397.852 122.534C397.57 122.906 397.18 123.361 396.68 123.898L394.719 125.994V126.062H398.776V127H393.271Z" fill="white" fill-opacity="0.8"/>
<path d="M638.699 127.119C638.136 127.119 637.635 127.023 637.194 126.83C636.757 126.636 636.409 126.368 636.15 126.024C635.895 125.678 635.755 125.276 635.733 124.818H636.807C636.829 125.099 636.926 125.342 637.096 125.547C637.267 125.749 637.49 125.905 637.765 126.016C638.041 126.126 638.346 126.182 638.682 126.182C639.057 126.182 639.389 126.116 639.679 125.986C639.969 125.855 640.196 125.673 640.361 125.44C640.525 125.207 640.608 124.938 640.608 124.631C640.608 124.31 640.528 124.027 640.369 123.783C640.21 123.536 639.977 123.342 639.67 123.203C639.363 123.064 638.988 122.994 638.545 122.994H637.846V122.057H638.545C638.892 122.057 639.196 121.994 639.457 121.869C639.721 121.744 639.927 121.568 640.075 121.341C640.226 121.114 640.301 120.847 640.301 120.54C640.301 120.244 640.236 119.987 640.105 119.768C639.974 119.55 639.79 119.379 639.551 119.257C639.315 119.135 639.037 119.074 638.716 119.074C638.415 119.074 638.13 119.129 637.863 119.24C637.599 119.348 637.383 119.506 637.216 119.713C637.048 119.918 636.957 120.165 636.943 120.455H635.92C635.937 119.997 636.075 119.597 636.334 119.253C636.592 118.906 636.93 118.636 637.348 118.443C637.768 118.25 638.23 118.153 638.733 118.153C639.272 118.153 639.736 118.263 640.122 118.482C640.508 118.697 640.805 118.983 641.013 119.338C641.22 119.693 641.324 120.077 641.324 120.489C641.324 120.98 641.194 121.399 640.936 121.746C640.68 122.092 640.332 122.332 639.892 122.466V122.534C640.443 122.625 640.873 122.859 641.183 123.237C641.493 123.612 641.647 124.077 641.647 124.631C641.647 125.105 641.518 125.531 641.26 125.909C641.004 126.284 640.655 126.58 640.211 126.795C639.768 127.011 639.264 127.119 638.699 127.119Z" fill="white" fill-opacity="0.8"/>
<rect x="164" y="149" width="16" height="2" fill="#8979FF"/>
<circle cx="172" cy="150" r="3.5" fill="#1A1F26" stroke="#8979FF"/>
<path d="M185.057 154.5V145.773H190.324V146.71H186.114V149.659H190.051V150.597H186.114V153.562H190.392V154.5H185.057ZM192.842 147.955L194.411 150.631L195.979 147.955H197.138L195.024 151.227L197.138 154.5H195.979L194.411 151.96L192.842 154.5H191.683L193.763 151.227L191.683 147.955H192.842ZM199.323 147.955L200.891 150.631L202.459 147.955H203.618L201.505 151.227L203.618 154.5H202.459L200.891 151.96L199.323 154.5H198.164L200.243 151.227L198.164 147.955H199.323ZM207.443 154.636C206.852 154.636 206.333 154.496 205.887 154.214C205.444 153.933 205.098 153.54 204.848 153.034C204.6 152.528 204.477 151.937 204.477 151.261C204.477 150.58 204.6 149.984 204.848 149.476C205.098 148.967 205.444 148.572 205.887 148.291C206.333 148.01 206.852 147.869 207.443 147.869C208.034 147.869 208.551 148.01 208.994 148.291C209.44 148.572 209.787 148.967 210.034 149.476C210.284 149.984 210.409 150.58 210.409 151.261C210.409 151.937 210.284 152.528 210.034 153.034C209.787 153.54 209.44 153.933 208.994 154.214C208.551 154.496 208.034 154.636 207.443 154.636ZM207.443 153.733C207.892 153.733 208.261 153.618 208.551 153.388C208.841 153.158 209.055 152.855 209.194 152.48C209.333 152.105 209.403 151.699 209.403 151.261C209.403 150.824 209.333 150.416 209.194 150.038C209.055 149.661 208.841 149.355 208.551 149.122C208.261 148.889 207.892 148.773 207.443 148.773C206.994 148.773 206.625 148.889 206.335 149.122C206.045 149.355 205.831 149.661 205.691 150.038C205.552 150.416 205.483 150.824 205.483 151.261C205.483 151.699 205.552 152.105 205.691 152.48C205.831 152.855 206.045 153.158 206.335 153.388C206.625 153.618 206.994 153.733 207.443 153.733ZM212.95 150.562V154.5H211.944V147.955H212.915V148.977H213.001C213.154 148.645 213.387 148.378 213.7 148.176C214.012 147.972 214.415 147.869 214.91 147.869C215.353 147.869 215.741 147.96 216.073 148.142C216.406 148.321 216.664 148.594 216.849 148.96C217.033 149.324 217.126 149.784 217.126 150.341V154.5H216.12V150.409C216.12 149.895 215.987 149.494 215.719 149.207C215.452 148.918 215.086 148.773 214.62 148.773C214.299 148.773 214.012 148.842 213.759 148.982C213.509 149.121 213.312 149.324 213.167 149.591C213.022 149.858 212.95 150.182 212.95 150.562ZM219.1 145.773H220.361L223.327 153.017H223.429L226.395 145.773H227.657V154.5H226.668V147.869H226.583L223.855 154.5H222.901L220.174 147.869H220.088V154.5H219.1V145.773ZM232.298 154.636C231.707 154.636 231.189 154.496 230.743 154.214C230.3 153.933 229.953 153.54 229.703 153.034C229.456 152.528 229.332 151.937 229.332 151.261C229.332 150.58 229.456 149.984 229.703 149.476C229.953 148.967 230.3 148.572 230.743 148.291C231.189 148.01 231.707 147.869 232.298 147.869C232.889 147.869 233.406 148.01 233.849 148.291C234.295 148.572 234.642 148.967 234.889 149.476C235.139 149.984 235.264 150.58 235.264 151.261C235.264 151.937 235.139 152.528 234.889 153.034C234.642 153.54 234.295 153.933 233.849 154.214C233.406 154.496 232.889 154.636 232.298 154.636ZM232.298 153.733C232.747 153.733 233.116 153.618 233.406 153.388C233.696 153.158 233.911 152.855 234.05 152.48C234.189 152.105 234.259 151.699 234.259 151.261C234.259 150.824 234.189 150.416 234.05 150.038C233.911 149.661 233.696 149.355 233.406 149.122C233.116 148.889 232.747 148.773 232.298 148.773C231.849 148.773 231.48 148.889 231.19 149.122C230.901 149.355 230.686 149.661 230.547 150.038C230.408 150.416 230.338 150.824 230.338 151.261C230.338 151.699 230.408 152.105 230.547 152.48C230.686 152.855 230.901 153.158 231.19 153.388C231.48 153.618 231.849 153.733 232.298 153.733ZM236.936 154.5V145.773H237.941V148.994H238.027C238.1 148.881 238.203 148.736 238.333 148.56C238.467 148.381 238.657 148.222 238.904 148.082C239.154 147.94 239.493 147.869 239.919 147.869C240.47 147.869 240.956 148.007 241.376 148.283C241.797 148.558 242.125 148.949 242.36 149.455C242.596 149.96 242.714 150.557 242.714 151.244C242.714 151.938 242.596 152.538 242.36 153.047C242.125 153.553 241.798 153.945 241.38 154.223C240.963 154.499 240.481 154.636 239.936 154.636C239.515 154.636 239.179 154.567 238.926 154.428C238.673 154.286 238.478 154.125 238.342 153.946C238.206 153.764 238.1 153.614 238.027 153.494H237.907V154.5H236.936ZM237.924 151.227C237.924 151.722 237.997 152.158 238.142 152.536C238.287 152.911 238.498 153.205 238.777 153.418C239.055 153.628 239.396 153.733 239.799 153.733C240.22 153.733 240.571 153.622 240.852 153.401C241.136 153.176 241.349 152.875 241.491 152.497C241.636 152.116 241.708 151.693 241.708 151.227C241.708 150.767 241.637 150.352 241.495 149.983C241.356 149.611 241.145 149.317 240.86 149.101C240.579 148.882 240.225 148.773 239.799 148.773C239.39 148.773 239.047 148.876 238.768 149.084C238.49 149.288 238.279 149.575 238.137 149.945C237.995 150.311 237.924 150.739 237.924 151.227ZM244.252 154.5V147.955H245.258V154.5H244.252ZM244.764 146.864C244.568 146.864 244.399 146.797 244.257 146.663C244.118 146.53 244.048 146.369 244.048 146.182C244.048 145.994 244.118 145.834 244.257 145.7C244.399 145.567 244.568 145.5 244.764 145.5C244.96 145.5 245.127 145.567 245.267 145.7C245.409 145.834 245.48 145.994 245.48 146.182C245.48 146.369 245.409 146.53 245.267 146.663C245.127 146.797 244.96 146.864 244.764 146.864ZM248.106 145.773V154.5H247.1V145.773H248.106Z" fill="white" fill-opacity="0.8"/>
<rect x="266" y="149" width="16" height="2" fill="#FF928A"/>
<circle cx="274" cy="150" r="3.5" fill="#1A1F26" stroke="#FF928A"/>
<path d="M287.057 154.5V145.773H290.108C290.716 145.773 291.217 145.878 291.612 146.088C292.007 146.295 292.301 146.575 292.494 146.928C292.688 147.277 292.784 147.665 292.784 148.091C292.784 148.466 292.717 148.776 292.584 149.02C292.453 149.264 292.28 149.457 292.064 149.599C291.851 149.741 291.619 149.847 291.369 149.915V150C291.636 150.017 291.905 150.111 292.175 150.281C292.445 150.452 292.67 150.696 292.852 151.014C293.034 151.332 293.125 151.722 293.125 152.182C293.125 152.619 293.026 153.013 292.827 153.362C292.628 153.712 292.314 153.989 291.885 154.193C291.456 154.398 290.898 154.5 290.21 154.5H287.057ZM288.114 153.562H290.21C290.901 153.562 291.391 153.429 291.68 153.162C291.973 152.892 292.119 152.565 292.119 152.182C292.119 151.886 292.044 151.614 291.893 151.364C291.743 151.111 291.528 150.909 291.25 150.759C290.972 150.605 290.642 150.528 290.261 150.528H288.114V153.562ZM288.114 149.608H290.074C290.392 149.608 290.679 149.545 290.935 149.42C291.193 149.295 291.398 149.119 291.548 148.892C291.702 148.665 291.778 148.398 291.778 148.091C291.778 147.707 291.645 147.382 291.378 147.115C291.111 146.845 290.688 146.71 290.108 146.71H288.114V149.608ZM294.862 154.5V145.773H297.81C298.495 145.773 299.055 145.896 299.489 146.143C299.927 146.388 300.251 146.719 300.461 147.136C300.671 147.554 300.776 148.02 300.776 148.534C300.776 149.048 300.671 149.516 300.461 149.936C300.254 150.357 299.933 150.692 299.498 150.942C299.063 151.189 298.506 151.312 297.827 151.312H295.714V150.375H297.793C298.262 150.375 298.638 150.294 298.923 150.132C299.207 149.97 299.413 149.751 299.54 149.476C299.671 149.197 299.737 148.884 299.737 148.534C299.737 148.185 299.671 147.872 299.54 147.597C299.413 147.321 299.205 147.105 298.918 146.949C298.631 146.79 298.251 146.71 297.776 146.71H295.918V154.5H294.862ZM306.075 150.136C306.075 149.062 306.214 148.075 306.493 147.175C306.774 146.271 307.175 145.44 307.695 144.682H308.581C308.376 144.963 308.185 145.31 308.006 145.722C307.83 146.131 307.675 146.581 307.541 147.072C307.408 147.561 307.303 148.067 307.226 148.589C307.152 149.112 307.115 149.628 307.115 150.136C307.115 150.812 307.18 151.499 307.311 152.195C307.442 152.891 307.618 153.537 307.839 154.134C308.061 154.73 308.308 155.216 308.581 155.591H307.695C307.175 154.832 306.774 154.003 306.493 153.102C306.214 152.199 306.075 151.21 306.075 150.136ZM310.201 154.5V145.773H313.252C313.86 145.773 314.362 145.878 314.757 146.088C315.152 146.295 315.446 146.575 315.639 146.928C315.832 147.277 315.929 147.665 315.929 148.091C315.929 148.466 315.862 148.776 315.728 149.02C315.598 149.264 315.424 149.457 315.208 149.599C314.995 149.741 314.764 149.847 314.514 149.915V150C314.781 150.017 315.049 150.111 315.319 150.281C315.589 150.452 315.815 150.696 315.997 151.014C316.179 151.332 316.27 151.722 316.27 152.182C316.27 152.619 316.17 153.013 315.971 153.362C315.772 153.712 315.458 153.989 315.029 154.193C314.6 154.398 314.042 154.5 313.355 154.5H310.201ZM311.258 153.562H313.355C314.045 153.562 314.535 153.429 314.825 153.162C315.118 152.892 315.264 152.565 315.264 152.182C315.264 151.886 315.189 151.614 315.038 151.364C314.887 151.111 314.673 150.909 314.395 150.759C314.116 150.605 313.787 150.528 313.406 150.528H311.258V153.562ZM311.258 149.608H313.218C313.537 149.608 313.824 149.545 314.079 149.42C314.338 149.295 314.542 149.119 314.693 148.892C314.846 148.665 314.923 148.398 314.923 148.091C314.923 147.707 314.789 147.382 314.522 147.115C314.255 146.845 313.832 146.71 313.252 146.71H311.258V149.608ZM317.87 154.5V147.955H318.841V148.943H318.909C319.029 148.619 319.245 148.357 319.557 148.155C319.87 147.953 320.222 147.852 320.614 147.852C320.688 147.852 320.78 147.854 320.891 147.857C321.002 147.859 321.086 147.864 321.142 147.869V148.892C321.108 148.884 321.03 148.871 320.908 148.854C320.789 148.834 320.662 148.824 320.529 148.824C320.211 148.824 319.926 148.891 319.676 149.024C319.429 149.155 319.233 149.337 319.088 149.57C318.946 149.8 318.875 150.062 318.875 150.358V154.5H317.87ZM322.335 154.5V147.955H323.34V154.5H322.335ZM322.846 146.864C322.65 146.864 322.481 146.797 322.339 146.663C322.2 146.53 322.13 146.369 322.13 146.182C322.13 145.994 322.2 145.834 322.339 145.7C322.481 145.567 322.65 145.5 322.846 145.5C323.042 145.5 323.21 145.567 323.349 145.7C323.491 145.834 323.562 145.994 323.562 146.182C323.562 146.369 323.491 146.53 323.349 146.663C323.21 146.797 323.042 146.864 322.846 146.864ZM328.029 147.955V148.807H324.637V147.955H328.029ZM325.625 146.386H326.631V152.625C326.631 152.909 326.672 153.122 326.755 153.264C326.84 153.403 326.948 153.497 327.078 153.545C327.212 153.591 327.353 153.614 327.5 153.614C327.611 153.614 327.702 153.608 327.773 153.597C327.844 153.582 327.901 153.571 327.944 153.562L328.148 154.466C328.08 154.491 327.985 154.517 327.863 154.543C327.74 154.571 327.586 154.585 327.398 154.585C327.114 154.585 326.836 154.524 326.563 154.402C326.293 154.28 326.069 154.094 325.89 153.844C325.713 153.594 325.625 153.278 325.625 152.898V146.386ZM329.542 154.5V147.955H330.547V154.5H329.542ZM330.053 146.864C329.857 146.864 329.688 146.797 329.546 146.663C329.407 146.53 329.337 146.369 329.337 146.182C329.337 145.994 329.407 145.834 329.546 145.7C329.688 145.567 329.857 145.5 330.053 145.5C330.249 145.5 330.417 145.567 330.556 145.7C330.698 145.834 330.769 145.994 330.769 146.182C330.769 146.369 330.698 146.53 330.556 146.663C330.417 146.797 330.249 146.864 330.053 146.864ZM337.026 149.42L336.122 149.676C336.065 149.526 335.982 149.379 335.871 149.237C335.763 149.092 335.615 148.973 335.428 148.879C335.24 148.786 335 148.739 334.707 148.739C334.307 148.739 333.973 148.831 333.706 149.016C333.442 149.197 333.31 149.429 333.31 149.71C333.31 149.96 333.401 150.158 333.582 150.303C333.764 150.447 334.048 150.568 334.435 150.665L335.406 150.903C335.991 151.045 336.428 151.263 336.714 151.555C337.001 151.845 337.145 152.219 337.145 152.676C337.145 153.051 337.037 153.386 336.821 153.682C336.608 153.977 336.31 154.21 335.926 154.381C335.543 154.551 335.097 154.636 334.588 154.636C333.92 154.636 333.368 154.491 332.93 154.202C332.493 153.912 332.216 153.489 332.099 152.932L333.054 152.693C333.145 153.045 333.317 153.31 333.57 153.486C333.825 153.662 334.159 153.75 334.571 153.75C335.04 153.75 335.412 153.651 335.688 153.452C335.966 153.25 336.105 153.009 336.105 152.727C336.105 152.5 336.026 152.31 335.866 152.156C335.707 152 335.463 151.884 335.134 151.807L334.043 151.551C333.443 151.409 333.003 151.189 332.722 150.891C332.443 150.589 332.304 150.213 332.304 149.761C332.304 149.392 332.408 149.065 332.615 148.781C332.825 148.497 333.111 148.274 333.472 148.112C333.835 147.95 334.247 147.869 334.707 147.869C335.355 147.869 335.864 148.011 336.233 148.295C336.605 148.58 336.869 148.955 337.026 149.42ZM339.664 150.562V154.5H338.659V145.773H339.664V148.977H339.75C339.903 148.639 340.133 148.371 340.44 148.172C340.75 147.97 341.162 147.869 341.676 147.869C342.122 147.869 342.512 147.959 342.848 148.138C343.183 148.314 343.443 148.585 343.627 148.952C343.815 149.315 343.909 149.778 343.909 150.341V154.5H342.903V150.409C342.903 149.889 342.768 149.487 342.498 149.203C342.231 148.916 341.86 148.773 341.386 148.773C341.056 148.773 340.761 148.842 340.5 148.982C340.241 149.121 340.037 149.324 339.886 149.591C339.738 149.858 339.664 150.182 339.664 150.562ZM349.26 154.5V145.773H352.209C352.893 145.773 353.453 145.896 353.888 146.143C354.325 146.388 354.649 146.719 354.859 147.136C355.07 147.554 355.175 148.02 355.175 148.534C355.175 149.048 355.07 149.516 354.859 149.936C354.652 150.357 354.331 150.692 353.896 150.942C353.462 151.189 352.905 151.312 352.226 151.312H350.112V150.375H352.192C352.661 150.375 353.037 150.294 353.321 150.132C353.605 149.97 353.811 149.751 353.939 149.476C354.07 149.197 354.135 148.884 354.135 148.534C354.135 148.185 354.07 147.872 353.939 147.597C353.811 147.321 353.604 147.105 353.317 146.949C353.03 146.79 352.649 146.71 352.175 146.71H350.317V154.5H349.26ZM359.415 154.636C358.784 154.636 358.24 154.497 357.783 154.219C357.328 153.938 356.977 153.545 356.73 153.043C356.486 152.537 356.364 151.949 356.364 151.278C356.364 150.608 356.486 150.017 356.73 149.506C356.977 148.991 357.321 148.591 357.761 148.304C358.205 148.014 358.722 147.869 359.312 147.869C359.653 147.869 359.99 147.926 360.322 148.04C360.655 148.153 360.957 148.338 361.23 148.594C361.503 148.847 361.72 149.182 361.882 149.599C362.044 150.017 362.125 150.531 362.125 151.142V151.568H357.08V150.699H361.102C361.102 150.33 361.028 150 360.881 149.71C360.736 149.42 360.528 149.192 360.259 149.024C359.991 148.857 359.676 148.773 359.312 148.773C358.912 148.773 358.565 148.872 358.273 149.071C357.983 149.267 357.76 149.523 357.604 149.838C357.447 150.153 357.369 150.491 357.369 150.852V151.432C357.369 151.926 357.455 152.345 357.625 152.689C357.798 153.03 358.038 153.29 358.345 153.469C358.652 153.645 359.009 153.733 359.415 153.733C359.679 153.733 359.918 153.696 360.131 153.622C360.347 153.545 360.533 153.432 360.689 153.281C360.845 153.128 360.966 152.937 361.051 152.71L362.023 152.983C361.92 153.312 361.749 153.602 361.507 153.852C361.266 154.099 360.967 154.293 360.612 154.432C360.257 154.568 359.858 154.636 359.415 154.636ZM366.501 147.955V148.807H363.109V147.955H366.501ZM364.098 146.386H365.104V152.625C365.104 152.909 365.145 153.122 365.227 153.264C365.313 153.403 365.42 153.497 365.551 153.545C365.685 153.591 365.825 153.614 365.973 153.614C366.084 153.614 366.175 153.608 366.246 153.597C366.317 153.582 366.374 153.571 366.416 153.562L366.621 154.466C366.553 154.491 366.457 154.517 366.335 154.543C366.213 154.571 366.058 154.585 365.871 154.585C365.587 154.585 365.308 154.524 365.036 154.402C364.766 154.28 364.541 154.094 364.362 153.844C364.186 153.594 364.098 153.278 364.098 152.898V146.386ZM368.014 154.5V147.955H368.986V148.943H369.054C369.173 148.619 369.389 148.357 369.702 148.155C370.014 147.953 370.366 147.852 370.759 147.852C370.832 147.852 370.925 147.854 371.036 147.857C371.146 147.859 371.23 147.864 371.287 147.869V148.892C371.253 148.884 371.175 148.871 371.053 148.854C370.933 148.834 370.807 148.824 370.673 148.824C370.355 148.824 370.071 148.891 369.821 149.024C369.574 149.155 369.378 149.337 369.233 149.57C369.091 149.8 369.02 150.062 369.02 150.358V154.5H368.014ZM374.939 154.636C374.348 154.636 373.83 154.496 373.384 154.214C372.94 153.933 372.594 153.54 372.344 153.034C372.097 152.528 371.973 151.937 371.973 151.261C371.973 150.58 372.097 149.984 372.344 149.476C372.594 148.967 372.94 148.572 373.384 148.291C373.83 148.01 374.348 147.869 374.939 147.869C375.53 147.869 376.047 148.01 376.49 148.291C376.936 148.572 377.283 148.967 377.53 149.476C377.78 149.984 377.905 150.58 377.905 151.261C377.905 151.937 377.78 152.528 377.53 153.034C377.283 153.54 376.936 153.933 376.49 154.214C376.047 154.496 375.53 154.636 374.939 154.636ZM374.939 153.733C375.388 153.733 375.757 153.618 376.047 153.388C376.337 153.158 376.551 152.855 376.69 152.48C376.83 152.105 376.899 151.699 376.899 151.261C376.899 150.824 376.83 150.416 376.69 150.038C376.551 149.661 376.337 149.355 376.047 149.122C375.757 148.889 375.388 148.773 374.939 148.773C374.49 148.773 374.121 148.889 373.831 149.122C373.541 149.355 373.327 149.661 373.188 150.038C373.048 150.416 372.979 150.824 372.979 151.261C372.979 151.699 373.048 152.105 373.188 152.48C373.327 152.855 373.541 153.158 373.831 153.388C374.121 153.618 374.49 153.733 374.939 153.733ZM380.446 145.773V154.5H379.44V145.773H380.446ZM385.032 154.636C384.401 154.636 383.857 154.497 383.4 154.219C382.945 153.938 382.594 153.545 382.347 153.043C382.103 152.537 381.981 151.949 381.981 151.278C381.981 150.608 382.103 150.017 382.347 149.506C382.594 148.991 382.938 148.591 383.379 148.304C383.822 148.014 384.339 147.869 384.93 147.869C385.271 147.869 385.607 147.926 385.94 148.04C386.272 148.153 386.575 148.338 386.847 148.594C387.12 148.847 387.337 149.182 387.499 149.599C387.661 150.017 387.742 150.531 387.742 151.142V151.568H382.697V150.699H386.719C386.719 150.33 386.646 150 386.498 149.71C386.353 149.42 386.146 149.192 385.876 149.024C385.609 148.857 385.293 148.773 384.93 148.773C384.529 148.773 384.183 148.872 383.89 149.071C383.6 149.267 383.377 149.523 383.221 149.838C383.065 150.153 382.987 150.491 382.987 150.852V151.432C382.987 151.926 383.072 152.345 383.242 152.689C383.415 153.03 383.656 153.29 383.962 153.469C384.269 153.645 384.626 153.733 385.032 153.733C385.296 153.733 385.535 153.696 385.748 153.622C385.964 153.545 386.15 153.432 386.306 153.281C386.462 153.128 386.583 152.937 386.668 152.71L387.64 152.983C387.538 153.312 387.366 153.602 387.124 153.852C386.883 154.099 386.585 154.293 386.229 154.432C385.874 154.568 385.475 154.636 385.032 154.636ZM393.397 151.824V147.955H394.403V154.5H393.397V153.392H393.329C393.175 153.724 392.937 154.007 392.613 154.24C392.289 154.47 391.88 154.585 391.386 154.585C390.977 154.585 390.613 154.496 390.295 154.317C389.977 154.135 389.727 153.862 389.545 153.499C389.363 153.132 389.272 152.67 389.272 152.114V147.955H390.278V152.045C390.278 152.523 390.411 152.903 390.678 153.188C390.948 153.472 391.292 153.614 391.71 153.614C391.96 153.614 392.214 153.55 392.472 153.422C392.734 153.294 392.952 153.098 393.129 152.834C393.308 152.57 393.397 152.233 393.397 151.824ZM396.245 154.5V147.955H397.216V148.977H397.301C397.438 148.628 397.658 148.357 397.962 148.163C398.266 147.967 398.631 147.869 399.057 147.869C399.489 147.869 399.848 147.967 400.135 148.163C400.425 148.357 400.651 148.628 400.813 148.977H400.881C401.049 148.639 401.3 148.371 401.635 148.172C401.971 147.97 402.373 147.869 402.841 147.869C403.426 147.869 403.905 148.053 404.277 148.419C404.65 148.783 404.836 149.349 404.836 150.119V154.5H403.83V150.119C403.83 149.636 403.698 149.291 403.434 149.084C403.169 148.876 402.858 148.773 402.5 148.773C402.04 148.773 401.684 148.912 401.431 149.19C401.178 149.466 401.051 149.815 401.051 150.239V154.5H400.029V150.017C400.029 149.645 399.908 149.345 399.667 149.118C399.425 148.888 399.114 148.773 398.733 148.773C398.472 148.773 398.228 148.842 398 148.982C397.776 149.121 397.594 149.314 397.455 149.561C397.319 149.805 397.25 150.088 397.25 150.409V154.5H396.245ZM408.822 150.818C408.822 151.892 408.681 152.881 408.4 153.784C408.122 154.685 407.723 155.514 407.203 156.273H406.316C406.521 155.991 406.711 155.645 406.887 155.233C407.066 154.824 407.223 154.375 407.356 153.886C407.49 153.395 407.593 152.888 407.667 152.365C407.744 151.839 407.782 151.324 407.782 150.818C407.782 150.142 407.717 149.456 407.586 148.76C407.456 148.064 407.279 147.418 407.058 146.821C406.836 146.224 406.589 145.739 406.316 145.364H407.203C407.723 146.122 408.122 146.953 408.4 147.857C408.681 148.757 408.822 149.744 408.822 150.818Z" fill="white" fill-opacity="0.8"/>
<rect x="427" y="149" width="16" height="2" fill="#3CC3DF"/>
<circle cx="435" cy="150" r="3.5" fill="#1A1F26" stroke="#3CC3DF"/>
<path d="M447.58 146.71V145.773H454.125V146.71H451.381V154.5H450.324V146.71H447.58ZM457.33 154.636C456.739 154.636 456.22 154.496 455.774 154.214C455.331 153.933 454.984 153.54 454.734 153.034C454.487 152.528 454.364 151.937 454.364 151.261C454.364 150.58 454.487 149.984 454.734 149.476C454.984 148.967 455.331 148.572 455.774 148.291C456.22 148.01 456.739 147.869 457.33 147.869C457.92 147.869 458.438 148.01 458.881 148.291C459.327 148.572 459.673 148.967 459.92 149.476C460.17 149.984 460.295 150.58 460.295 151.261C460.295 151.937 460.17 152.528 459.92 153.034C459.673 153.54 459.327 153.933 458.881 154.214C458.438 154.496 457.92 154.636 457.33 154.636ZM457.33 153.733C457.778 153.733 458.148 153.618 458.438 153.388C458.727 153.158 458.942 152.855 459.081 152.48C459.22 152.105 459.29 151.699 459.29 151.261C459.29 150.824 459.22 150.416 459.081 150.038C458.942 149.661 458.727 149.355 458.438 149.122C458.148 148.889 457.778 148.773 457.33 148.773C456.881 148.773 456.511 148.889 456.222 149.122C455.932 149.355 455.717 149.661 455.578 150.038C455.439 150.416 455.369 150.824 455.369 151.261C455.369 151.699 455.439 152.105 455.578 152.48C455.717 152.855 455.932 153.158 456.222 153.388C456.511 153.618 456.881 153.733 457.33 153.733ZM464.677 147.955V148.807H461.285V147.955H464.677ZM462.274 146.386H463.279V152.625C463.279 152.909 463.321 153.122 463.403 153.264C463.488 153.403 463.596 153.497 463.727 153.545C463.86 153.591 464.001 153.614 464.149 153.614C464.26 153.614 464.35 153.608 464.422 153.597C464.493 153.582 464.549 153.571 464.592 153.562L464.797 154.466C464.728 154.491 464.633 154.517 464.511 154.543C464.389 154.571 464.234 154.585 464.047 154.585C463.762 154.585 463.484 154.524 463.211 154.402C462.941 154.28 462.717 154.094 462.538 153.844C462.362 153.594 462.274 153.278 462.274 152.898V146.386ZM468.116 154.653C467.701 154.653 467.325 154.575 466.987 154.419C466.649 154.26 466.38 154.031 466.181 153.733C465.983 153.432 465.883 153.068 465.883 152.642C465.883 152.267 465.957 151.963 466.105 151.73C466.252 151.494 466.45 151.31 466.697 151.176C466.944 151.043 467.217 150.943 467.515 150.878C467.816 150.81 468.119 150.756 468.423 150.716C468.821 150.665 469.143 150.626 469.39 150.601C469.64 150.572 469.822 150.526 469.936 150.46C470.052 150.395 470.11 150.281 470.11 150.119V150.085C470.11 149.665 469.995 149.338 469.765 149.105C469.538 148.872 469.193 148.756 468.73 148.756C468.25 148.756 467.873 148.861 467.6 149.071C467.328 149.281 467.136 149.506 467.025 149.744L466.071 149.403C466.241 149.006 466.468 148.696 466.752 148.474C467.039 148.25 467.352 148.094 467.69 148.006C468.031 147.915 468.366 147.869 468.696 147.869C468.906 147.869 469.147 147.895 469.42 147.946C469.696 147.994 469.961 148.095 470.217 148.249C470.475 148.402 470.69 148.634 470.86 148.943C471.031 149.253 471.116 149.668 471.116 150.188V154.5H470.11V153.614H470.059C469.991 153.756 469.877 153.908 469.718 154.07C469.559 154.232 469.348 154.369 469.083 154.483C468.819 154.597 468.497 154.653 468.116 154.653ZM468.27 153.75C468.667 153.75 469.002 153.672 469.275 153.516C469.551 153.359 469.758 153.158 469.897 152.911C470.039 152.663 470.11 152.403 470.11 152.131V151.21C470.068 151.261 469.974 151.308 469.829 151.351C469.687 151.391 469.522 151.426 469.335 151.457C469.15 151.486 468.97 151.511 468.794 151.534C468.62 151.554 468.48 151.571 468.372 151.585C468.11 151.619 467.866 151.675 467.639 151.751C467.414 151.825 467.233 151.937 467.093 152.088C466.957 152.236 466.889 152.437 466.889 152.693C466.889 153.043 467.018 153.307 467.277 153.486C467.538 153.662 467.869 153.75 468.27 153.75ZM473.957 145.773V154.5H472.952V145.773H473.957ZM475.936 154.5V145.773H481.203V146.71H476.993V149.659H480.93V150.597H476.993V153.562H481.271V154.5H475.936ZM483.977 150.562V154.5H482.971V147.955H483.943V148.977H484.028C484.181 148.645 484.414 148.378 484.727 148.176C485.039 147.972 485.443 147.869 485.937 147.869C486.38 147.869 486.768 147.96 487.1 148.142C487.433 148.321 487.691 148.594 487.876 148.96C488.061 149.324 488.153 149.784 488.153 150.341V154.5H487.147V150.409C487.147 149.895 487.014 149.494 486.747 149.207C486.48 148.918 486.113 148.773 485.647 148.773C485.326 148.773 485.039 148.842 484.787 148.982C484.537 149.121 484.339 149.324 484.194 149.591C484.049 149.858 483.977 150.182 483.977 150.562ZM492.735 154.636C492.104 154.636 491.56 154.497 491.103 154.219C490.648 153.938 490.298 153.545 490.05 153.043C489.806 152.537 489.684 151.949 489.684 151.278C489.684 150.608 489.806 150.017 490.05 149.506C490.298 148.991 490.641 148.591 491.082 148.304C491.525 148.014 492.042 147.869 492.633 147.869C492.974 147.869 493.31 147.926 493.643 148.04C493.975 148.153 494.278 148.338 494.55 148.594C494.823 148.847 495.04 149.182 495.202 149.599C495.364 150.017 495.445 150.531 495.445 151.142V151.568H490.4V150.699H494.423C494.423 150.33 494.349 150 494.201 149.71C494.056 149.42 493.849 149.192 493.579 149.024C493.312 148.857 492.996 148.773 492.633 148.773C492.232 148.773 491.886 148.872 491.593 149.071C491.303 149.267 491.08 149.523 490.924 149.838C490.768 150.153 490.69 150.491 490.69 150.852V151.432C490.69 151.926 490.775 152.345 490.945 152.689C491.119 153.03 491.359 153.29 491.665 153.469C491.972 153.645 492.329 153.733 492.735 153.733C492.999 153.733 493.238 153.696 493.451 153.622C493.667 153.545 493.853 153.432 494.009 153.281C494.165 153.128 494.286 152.937 494.371 152.71L495.343 152.983C495.241 153.312 495.069 153.602 494.827 153.852C494.586 154.099 494.288 154.293 493.933 154.432C493.577 154.568 493.178 154.636 492.735 154.636ZM496.975 154.5V147.955H497.947V148.943H498.015C498.134 148.619 498.35 148.357 498.663 148.155C498.975 147.953 499.327 147.852 499.719 147.852C499.793 147.852 499.886 147.854 499.996 147.857C500.107 147.859 500.191 147.864 500.248 147.869V148.892C500.214 148.884 500.136 148.871 500.013 148.854C499.894 148.834 499.768 148.824 499.634 148.824C499.316 148.824 499.032 148.891 498.782 149.024C498.535 149.155 498.339 149.337 498.194 149.57C498.052 149.8 497.981 150.062 497.981 150.358V154.5H496.975ZM503.883 157.091C503.397 157.091 502.979 157.028 502.63 156.903C502.281 156.781 501.989 156.619 501.756 156.418C501.526 156.219 501.343 156.006 501.207 155.778L502.008 155.216C502.099 155.335 502.214 155.472 502.353 155.625C502.492 155.781 502.683 155.916 502.924 156.03C503.168 156.146 503.488 156.205 503.883 156.205C504.411 156.205 504.847 156.077 505.191 155.821C505.535 155.565 505.707 155.165 505.707 154.619V153.29H505.621C505.548 153.409 505.442 153.557 505.306 153.733C505.173 153.906 504.979 154.061 504.727 154.197C504.477 154.331 504.138 154.398 503.712 154.398C503.184 154.398 502.71 154.273 502.289 154.023C501.871 153.773 501.54 153.409 501.296 152.932C501.055 152.455 500.934 151.875 500.934 151.193C500.934 150.523 501.052 149.939 501.288 149.442C501.523 148.942 501.852 148.555 502.272 148.283C502.692 148.007 503.178 147.869 503.729 147.869C504.156 147.869 504.494 147.94 504.744 148.082C504.996 148.222 505.19 148.381 505.323 148.56C505.46 148.736 505.565 148.881 505.638 148.994H505.741V147.955H506.712V154.688C506.712 155.25 506.585 155.707 506.329 156.06C506.076 156.415 505.735 156.675 505.306 156.839C504.88 157.007 504.406 157.091 503.883 157.091ZM503.849 153.494C504.252 153.494 504.593 153.402 504.871 153.217C505.15 153.033 505.362 152.767 505.506 152.42C505.651 152.074 505.724 151.659 505.724 151.176C505.724 150.705 505.653 150.288 505.511 149.928C505.369 149.567 505.158 149.284 504.88 149.08C504.602 148.875 504.258 148.773 503.849 148.773C503.423 148.773 503.067 148.881 502.783 149.097C502.502 149.312 502.29 149.602 502.148 149.966C502.009 150.33 501.94 150.733 501.94 151.176C501.94 151.631 502.011 152.033 502.153 152.382C502.298 152.729 502.511 153.001 502.792 153.2C503.076 153.396 503.428 153.494 503.849 153.494ZM508.553 154.5V147.955H509.559V154.5H508.553ZM509.065 146.864C508.869 146.864 508.7 146.797 508.558 146.663C508.418 146.53 508.349 146.369 508.349 146.182C508.349 145.994 508.418 145.834 508.558 145.7C508.7 145.567 508.869 145.5 509.065 145.5C509.261 145.5 509.428 145.567 509.567 145.7C509.71 145.834 509.781 145.994 509.781 146.182C509.781 146.369 509.71 146.53 509.567 146.663C509.428 146.797 509.261 146.864 509.065 146.864ZM514.145 154.636C513.515 154.636 512.971 154.497 512.513 154.219C512.059 153.938 511.708 153.545 511.461 153.043C511.216 152.537 511.094 151.949 511.094 151.278C511.094 150.608 511.216 150.017 511.461 149.506C511.708 148.991 512.051 148.591 512.492 148.304C512.935 148.014 513.452 147.869 514.043 147.869C514.384 147.869 514.721 147.926 515.053 148.04C515.385 148.153 515.688 148.338 515.961 148.594C516.233 148.847 516.451 149.182 516.613 149.599C516.775 150.017 516.855 150.531 516.855 151.142V151.568H511.81V150.699H515.833C515.833 150.33 515.759 150 515.611 149.71C515.466 149.42 515.259 149.192 514.989 149.024C514.722 148.857 514.407 148.773 514.043 148.773C513.642 148.773 513.296 148.872 513.003 149.071C512.713 149.267 512.49 149.523 512.334 149.838C512.178 150.153 512.1 150.491 512.1 150.852V151.432C512.1 151.926 512.185 152.345 512.355 152.689C512.529 153.03 512.769 153.29 513.076 153.469C513.382 153.645 513.739 153.733 514.145 153.733C514.409 153.733 514.648 153.696 514.861 153.622C515.077 153.545 515.263 153.432 515.419 153.281C515.576 153.128 515.696 152.937 515.782 152.71L516.753 152.983C516.651 153.312 516.479 153.602 516.238 153.852C515.996 154.099 515.698 154.293 515.343 154.432C514.988 154.568 514.588 154.636 514.145 154.636ZM523.022 149.42L522.118 149.676C522.061 149.526 521.978 149.379 521.867 149.237C521.759 149.092 521.611 148.973 521.424 148.879C521.236 148.786 520.996 148.739 520.703 148.739C520.303 148.739 519.969 148.831 519.702 149.016C519.438 149.197 519.306 149.429 519.306 149.71C519.306 149.96 519.397 150.158 519.578 150.303C519.76 150.447 520.044 150.568 520.431 150.665L521.402 150.903C521.988 151.045 522.424 151.263 522.711 151.555C522.998 151.845 523.141 152.219 523.141 152.676C523.141 153.051 523.033 153.386 522.817 153.682C522.604 153.977 522.306 154.21 521.922 154.381C521.539 154.551 521.093 154.636 520.584 154.636C519.917 154.636 519.364 154.491 518.926 154.202C518.489 153.912 518.212 153.489 518.096 152.932L519.05 152.693C519.141 153.045 519.313 153.31 519.566 153.486C519.821 153.662 520.155 153.75 520.567 153.75C521.036 153.75 521.408 153.651 521.684 153.452C521.962 153.25 522.101 153.009 522.101 152.727C522.101 152.5 522.022 152.31 521.863 152.156C521.703 152 521.459 151.884 521.13 151.807L520.039 151.551C519.439 151.409 518.999 151.189 518.718 150.891C518.439 150.589 518.3 150.213 518.3 149.761C518.3 149.392 518.404 149.065 518.611 148.781C518.821 148.497 519.107 148.274 519.468 148.112C519.831 147.95 520.243 147.869 520.703 147.869C521.351 147.869 521.86 148.011 522.229 148.295C522.601 148.58 522.865 148.955 523.022 149.42Z" fill="white" fill-opacity="0.8"/>
<rect x="540" y="149" width="16" height="2" fill="#FFAE4C"/>
<circle cx="548" cy="150" r="3.5" fill="#1A1F26" stroke="#FFAE4C"/>
<path d="M567.023 148.5C566.929 148.213 566.805 147.956 566.652 147.729C566.501 147.499 566.321 147.303 566.111 147.141C565.903 146.979 565.668 146.855 565.403 146.77C565.139 146.685 564.849 146.642 564.534 146.642C564.017 146.642 563.547 146.776 563.124 147.043C562.7 147.31 562.364 147.703 562.114 148.223C561.864 148.743 561.739 149.381 561.739 150.136C561.739 150.892 561.865 151.53 562.118 152.05C562.371 152.57 562.713 152.963 563.145 153.23C563.577 153.497 564.063 153.631 564.602 153.631C565.102 153.631 565.543 153.524 565.923 153.311C566.307 153.095 566.605 152.791 566.818 152.399C567.034 152.004 567.142 151.54 567.142 151.006L567.466 151.074H564.841V150.136H568.165V151.074C568.165 151.793 568.011 152.418 567.705 152.949C567.401 153.48 566.98 153.892 566.443 154.185C565.909 154.474 565.295 154.619 564.602 154.619C563.83 154.619 563.151 154.438 562.565 154.074C561.983 153.71 561.528 153.193 561.202 152.523C560.878 151.852 560.716 151.057 560.716 150.136C560.716 149.446 560.808 148.825 560.993 148.274C561.18 147.72 561.445 147.249 561.786 146.859C562.126 146.47 562.53 146.172 562.996 145.964C563.462 145.757 563.974 145.653 564.534 145.653C564.994 145.653 565.423 145.723 565.821 145.862C566.222 145.999 566.578 146.193 566.891 146.446C567.206 146.696 567.469 146.996 567.679 147.345C567.889 147.692 568.034 148.077 568.114 148.5H567.023ZM571.765 154.653C571.35 154.653 570.973 154.575 570.635 154.419C570.297 154.26 570.029 154.031 569.83 153.733C569.631 153.432 569.532 153.068 569.532 152.642C569.532 152.267 569.605 151.963 569.753 151.73C569.901 151.494 570.098 151.31 570.346 151.176C570.593 151.043 570.865 150.943 571.164 150.878C571.465 150.81 571.767 150.756 572.071 150.716C572.469 150.665 572.792 150.626 573.039 150.601C573.289 150.572 573.471 150.526 573.584 150.46C573.701 150.395 573.759 150.281 573.759 150.119V150.085C573.759 149.665 573.644 149.338 573.414 149.105C573.186 148.872 572.841 148.756 572.378 148.756C571.898 148.756 571.522 148.861 571.249 149.071C570.976 149.281 570.784 149.506 570.674 149.744L569.719 149.403C569.89 149.006 570.117 148.696 570.401 148.474C570.688 148.25 571 148.094 571.338 148.006C571.679 147.915 572.015 147.869 572.344 147.869C572.554 147.869 572.796 147.895 573.069 147.946C573.344 147.994 573.61 148.095 573.865 148.249C574.124 148.402 574.338 148.634 574.509 148.943C574.679 149.253 574.765 149.668 574.765 150.188V154.5H573.759V153.614H573.708C573.64 153.756 573.526 153.908 573.367 154.07C573.208 154.232 572.996 154.369 572.732 154.483C572.468 154.597 572.145 154.653 571.765 154.653ZM571.918 153.75C572.316 153.75 572.651 153.672 572.924 153.516C573.199 153.359 573.407 153.158 573.546 152.911C573.688 152.663 573.759 152.403 573.759 152.131V151.21C573.716 151.261 573.623 151.308 573.478 151.351C573.336 151.391 573.171 151.426 572.983 151.457C572.799 151.486 572.618 151.511 572.442 151.534C572.269 151.554 572.128 151.571 572.02 151.585C571.759 151.619 571.515 151.675 571.287 151.751C571.063 151.825 570.881 151.937 570.742 152.088C570.605 152.236 570.537 152.437 570.537 152.693C570.537 153.043 570.667 153.307 570.925 153.486C571.186 153.662 571.517 153.75 571.918 153.75ZM576.413 154.5V153.733L580.129 148.96V148.892H576.532V147.955H581.424V148.756L577.81 153.494V153.562H581.543V154.5H576.413ZM583.092 156.955V147.955H584.064V148.994H584.183C584.257 148.881 584.359 148.736 584.49 148.56C584.624 148.381 584.814 148.222 585.061 148.082C585.311 147.94 585.649 147.869 586.075 147.869C586.626 147.869 587.112 148.007 587.533 148.283C587.953 148.558 588.281 148.949 588.517 149.455C588.753 149.96 588.871 150.557 588.871 151.244C588.871 151.938 588.753 152.538 588.517 153.047C588.281 153.553 587.955 153.945 587.537 154.223C587.119 154.499 586.638 154.636 586.092 154.636C585.672 154.636 585.335 154.567 585.082 154.428C584.83 154.286 584.635 154.125 584.499 153.946C584.362 153.764 584.257 153.614 584.183 153.494H584.098V156.955H583.092ZM584.081 151.227C584.081 151.722 584.153 152.158 584.298 152.536C584.443 152.911 584.655 153.205 584.933 153.418C585.212 153.628 585.553 153.733 585.956 153.733C586.376 153.733 586.727 153.622 587.009 153.401C587.293 153.176 587.506 152.875 587.648 152.497C587.793 152.116 587.865 151.693 587.865 151.227C587.865 150.767 587.794 150.352 587.652 149.983C587.513 149.611 587.301 149.317 587.017 149.101C586.736 148.882 586.382 148.773 585.956 148.773C585.547 148.773 585.203 148.876 584.925 149.084C584.646 149.288 584.436 149.575 584.294 149.945C584.152 150.311 584.081 150.739 584.081 151.227ZM590.405 154.5V147.955H591.376V148.943H591.445C591.564 148.619 591.78 148.357 592.092 148.155C592.405 147.953 592.757 147.852 593.149 147.852C593.223 147.852 593.315 147.854 593.426 147.857C593.537 147.859 593.621 147.864 593.678 147.869V148.892C593.643 148.884 593.565 148.871 593.443 148.854C593.324 148.834 593.197 148.824 593.064 148.824C592.746 148.824 592.462 148.891 592.212 149.024C591.964 149.155 591.768 149.337 591.624 149.57C591.482 149.8 591.411 150.062 591.411 150.358V154.5H590.405ZM597.33 154.636C596.739 154.636 596.22 154.496 595.774 154.214C595.331 153.933 594.984 153.54 594.734 153.034C594.487 152.528 594.364 151.937 594.364 151.261C594.364 150.58 594.487 149.984 594.734 149.476C594.984 148.967 595.331 148.572 595.774 148.291C596.22 148.01 596.739 147.869 597.33 147.869C597.92 147.869 598.438 148.01 598.881 148.291C599.327 148.572 599.673 148.967 599.92 149.476C600.17 149.984 600.295 150.58 600.295 151.261C600.295 151.937 600.17 152.528 599.92 153.034C599.673 153.54 599.327 153.933 598.881 154.214C598.438 154.496 597.92 154.636 597.33 154.636ZM597.33 153.733C597.778 153.733 598.148 153.618 598.438 153.388C598.727 153.158 598.942 152.855 599.081 152.48C599.22 152.105 599.29 151.699 599.29 151.261C599.29 150.824 599.22 150.416 599.081 150.038C598.942 149.661 598.727 149.355 598.438 149.122C598.148 148.889 597.778 148.773 597.33 148.773C596.881 148.773 596.511 148.889 596.222 149.122C595.932 149.355 595.717 149.661 595.578 150.038C595.439 150.416 595.369 150.824 595.369 151.261C595.369 151.699 595.439 152.105 595.578 152.48C595.717 152.855 595.932 153.158 596.222 153.388C596.511 153.618 596.881 153.733 597.33 153.733ZM601.831 154.5V147.955H602.802V148.977H602.887C603.024 148.628 603.244 148.357 603.548 148.163C603.852 147.967 604.217 147.869 604.643 147.869C605.075 147.869 605.434 147.967 605.721 148.163C606.011 148.357 606.237 148.628 606.399 148.977H606.467C606.635 148.639 606.886 148.371 607.221 148.172C607.556 147.97 607.958 147.869 608.427 147.869C609.012 147.869 609.491 148.053 609.863 148.419C610.235 148.783 610.422 149.349 610.422 150.119V154.5H609.416V150.119C609.416 149.636 609.284 149.291 609.02 149.084C608.755 148.876 608.444 148.773 608.086 148.773C607.626 148.773 607.27 148.912 607.017 149.19C606.764 149.466 606.637 149.815 606.637 150.239V154.5H605.615V150.017C605.615 149.645 605.494 149.345 605.252 149.118C605.011 148.888 604.7 148.773 604.319 148.773C604.058 148.773 603.814 148.842 603.586 148.982C603.362 149.121 603.18 149.314 603.041 149.561C602.904 149.805 602.836 150.088 602.836 150.409V154.5H601.831Z" fill="white" fill-opacity="0.8"/>
<defs>
<filter id="filter0_ddd_10_3816" x="135.333" y="34.2333" width="521.333" height="103.267" filterUnits="userSpaceOnUse" color-interpolation-filters="sRGB">
<feFlood flood-opacity="0" result="BackgroundImageFix"/>
<feColorMatrix in="SourceAlpha" type="matrix" values="0 0 0 0 0 0 0 0 0 0 0 0 0 0 0 0 0 0 127 0" result="hardAlpha"/>
<feOffset dy="3"/>
<feGaussianBlur stdDeviation="1.5"/>
<feColorMatrix type="matrix" values="0 0 0 0 1 0 0 0 0 0.682353 0 0 0 0 0.298039 0 0 0 0.4 0"/>
<feBlend mode="normal" in2="BackgroundImageFix" result="effect1_dropShadow_10_3816"/>
<feColorMatrix in="SourceAlpha" type="matrix" values="0 0 0 0 0 0 0 0 0 0 0 0 0 0 0 0 0 0 127 0" result="hardAlpha"/>
<feOffset dy="6"/>
<feGaussianBlur stdDeviation="4.5"/>
<feColorMatrix type="matrix" values="0 0 0 0 1 0 0 0 0 0.682353 0 0 0 0 0.298039 0 0 0 0.4 0"/>
<feBlend mode="normal" in2="effect1_dropShadow_10_3816" result="effect2_dropShadow_10_3816"/>
<feColorMatrix in="SourceAlpha" type="matrix" values="0 0 0 0 0 0 0 0 0 0 0 0 0 0 0 0 0 0 127 0" result="hardAlpha"/>
<feOffset dy="9"/>
<feGaussianBlur stdDeviation="9"/>
<feColorMatrix type="matrix" values="0 0 0 0 1 0 0 0 0 0.682353 0 0 0 0 0.298039 0 0 0 0.4 0"/>
<feBlend mode="normal" in2="effect2_dropShadow_10_3816" result="effect3_dropShadow_10_3816"/>
<feBlend mode="normal" in="SourceGraphic" in2="effect3_dropShadow_10_3816" result="shape"/>
</filter>
<filter id="filter1_ddd_10_3816" x="135.333" y="49.6167" width="521.333" height="87.8833" filterUnits="userSpaceOnUse" color-interpolation-filters="sRGB">
<feFlood flood-opacity="0" result="BackgroundImageFix"/>
<feColorMatrix in="SourceAlpha" type="matrix" values="0 0 0 0 0 0 0 0 0 0 0 0 0 0 0 0 0 0 127 0" result="hardAlpha"/>
<feOffset dy="3"/>
<feGaussianBlur stdDeviation="1.5"/>
<feColorMatrix type="matrix" values="0 0 0 0 0.233436 0 0 0 0 0.766174 0 0 0 0 0.873954 0 0 0 0.4 0"/>
<feBlend mode="normal" in2="BackgroundImageFix" result="effect1_dropShadow_10_3816"/>
<feColorMatrix in="SourceAlpha" type="matrix" values="0 0 0 0 0 0 0 0 0 0 0 0 0 0 0 0 0 0 127 0" result="hardAlpha"/>
<feOffset dy="6"/>
<feGaussianBlur stdDeviation="4.5"/>
<feColorMatrix type="matrix" values="0 0 0 0 0.233436 0 0 0 0 0.766174 0 0 0 0 0.873954 0 0 0 0.4 0"/>
<feBlend mode="normal" in2="effect1_dropShadow_10_3816" result="effect2_dropShadow_10_3816"/>
<feColorMatrix in="SourceAlpha" type="matrix" values="0 0 0 0 0 0 0 0 0 0 0 0 0 0 0 0 0 0 127 0" result="hardAlpha"/>
<feOffset dy="9"/>
<feGaussianBlur stdDeviation="9"/>
<feColorMatrix type="matrix" values="0 0 0 0 0.233436 0 0 0 0 0.766174 0 0 0 0 0.873954 0 0 0 0.4 0"/>
<feBlend mode="normal" in2="effect2_dropShadow_10_3816" result="effect3_dropShadow_10_3816"/>
<feBlend mode="normal" in="SourceGraphic" in2="effect3_dropShadow_10_3816" result="shape"/>
</filter>
<filter id="filter2_ddd_10_3816" x="135.333" y="100.5" width="521.333" height="37" filterUnits="userSpaceOnUse" color-interpolation-filters="sRGB">
<feFlood flood-opacity="0" result="BackgroundImageFix"/>
<feColorMatrix in="SourceAlpha" type="matrix" values="0 0 0 0 0 0 0 0 0 0 0 0 0 0 0 0 0 0 127 0" result="hardAlpha"/>
<feOffset dy="3"/>
<feGaussianBlur stdDeviation="1.5"/>
<feColorMatrix type="matrix" values="0 0 0 0 1 0 0 0 0 0.572549 0 0 0 0 0.541176 0 0 0 0.4 0"/>
<feBlend mode="normal" in2="BackgroundImageFix" result="effect1_dropShadow_10_3816"/>
<feColorMatrix in="SourceAlpha" type="matrix" values="0 0 0 0 0 0 0 0 0 0 0 0 0 0 0 0 0 0 127 0" result="hardAlpha"/>
<feOffset dy="6"/>
<feGaussianBlur stdDeviation="4.5"/>
<feColorMatrix type="matrix" values="0 0 0 0 1 0 0 0 0 0.572549 0 0 0 0 0.541176 0 0 0 0.4 0"/>
<feBlend mode="normal" in2="effect1_dropShadow_10_3816" result="effect2_dropShadow_10_3816"/>
<feColorMatrix in="SourceAlpha" type="matrix" values="0 0 0 0 0 0 0 0 0 0 0 0 0 0 0 0 0 0 127 0" result="hardAlpha"/>
<feOffset dy="9"/>
<feGaussianBlur stdDeviation="9"/>
<feColorMatrix type="matrix" values="0 0 0 0 1 0 0 0 0 0.572549 0 0 0 0 0.541176 0 0 0 0.4 0"/>
<feBlend mode="normal" in2="effect2_dropShadow_10_3816" result="effect3_dropShadow_10_3816"/>
<feBlend mode="normal" in="SourceGraphic" in2="effect3_dropShadow_10_3816" result="shape"/>
</filter>
<filter id="filter3_ddd_10_3816" x="135.333" y="52.22" width="521.333" height="85.28" filterUnits="userSpaceOnUse" color-interpolation-filters="sRGB">
<feFlood flood-opacity="0" result="BackgroundImageFix"/>
<feColorMatrix in="SourceAlpha" type="matrix" values="0 0 0 0 0 0 0 0 0 0 0 0 0 0 0 0 0 0 127 0" result="hardAlpha"/>
<feOffset dy="3"/>
<feGaussianBlur stdDeviation="1.5"/>
<feColorMatrix type="matrix" values="0 0 0 0 0.537451 0 0 0 0 0.474902 0 0 0 0 1 0 0 0 0.4 0"/>
<feBlend mode="normal" in2="BackgroundImageFix" result="effect1_dropShadow_10_3816"/>
<feColorMatrix in="SourceAlpha" type="matrix" values="0 0 0 0 0 0 0 0 0 0 0 0 0 0 0 0 0 0 127 0" result="hardAlpha"/>
<feOffset dy="6"/>
<feGaussianBlur stdDeviation="4.5"/>
<feColorMatrix type="matrix" values="0 0 0 0 0.537451 0 0 0 0 0.474902 0 0 0 0 1 0 0 0 0.4 0"/>
<feBlend mode="normal" in2="effect1_dropShadow_10_3816" result="effect2_dropShadow_10_3816"/>
<feColorMatrix in="SourceAlpha" type="matrix" values="0 0 0 0 0 0 0 0 0 0 0 0 0 0 0 0 0 0 127 0" result="hardAlpha"/>
<feOffset dy="9"/>
<feGaussianBlur stdDeviation="9"/>
<feColorMatrix type="matrix" values="0 0 0 0 0.537451 0 0 0 0 0.474902 0 0 0 0 1 0 0 0 0.4 0"/>
<feBlend mode="normal" in2="effect2_dropShadow_10_3816" result="effect3_dropShadow_10_3816"/>
<feBlend mode="normal" in="SourceGraphic" in2="effect3_dropShadow_10_3816" result="shape"/>
</filter>
<linearGradient id="paint0_linear_10_3816" x1="396" y1="43.7333" x2="396" y2="110" gradientUnits="userSpaceOnUse">
<stop stop-color="#FFAE4C" stop-opacity="0.3"/>
<stop offset="1" stop-color="#FFAE4C" stop-opacity="0.05"/>
</linearGradient>
<linearGradient id="paint1_linear_10_3816" x1="396" y1="59.1167" x2="396" y2="110" gradientUnits="userSpaceOnUse">
<stop stop-color="#3CC3DF" stop-opacity="0.3"/>
<stop offset="1" stop-color="#3CC3DF" stop-opacity="0.05"/>
</linearGradient>
<linearGradient id="paint2_linear_10_3816" x1="396" y1="61.72" x2="396" y2="110" gradientUnits="userSpaceOnUse">
<stop stop-color="#8979FF" stop-opacity="0.3"/>
<stop offset="1" stop-color="#8979FF" stop-opacity="0.05"/>
</linearGradient>
</defs>
</svg>
