<svg width="472" height="171" viewBox="0 0 472 171" fill="none" xmlns="http://www.w3.org/2000/svg">
<g clip-path="url(#clip0_10_3944)">
<rect width="472" height="171" rx="10" fill="white"/>
<rect width="458" height="171" rx="10" fill="#292E49"/>
<g filter="url(#filter0_d_10_3944)">
<path d="M59.0085 102.997C54.7983 102.997 51.1847 101.932 48.1676 99.8011C45.1676 97.6534 42.858 94.5597 41.2386 90.5199C39.6364 86.4631 38.8352 81.5795 38.8352 75.8693C38.8523 70.1591 39.6619 65.3011 41.2642 61.2955C42.8835 57.2727 45.1932 54.2045 48.1932 52.0909C51.2102 49.9773 54.8153 48.9205 59.0085 48.9205C63.2017 48.9205 66.8068 49.9773 69.8239 52.0909C72.8409 54.2045 75.1506 57.2727 76.7528 61.2955C78.3722 65.3182 79.1818 70.1761 79.1818 75.8693C79.1818 81.5966 78.3722 86.4886 76.7528 90.5455C75.1506 94.5852 72.8409 97.6705 69.8239 99.8011C66.8239 101.932 63.2188 102.997 59.0085 102.997ZM59.0085 94.9943C62.2813 94.9943 64.8636 93.3835 66.7557 90.1619C68.6648 86.9233 69.6193 82.1591 69.6193 75.8693C69.6193 71.7102 69.1847 68.2159 68.3153 65.3864C67.446 62.5568 66.2188 60.4261 64.6335 58.9943C63.0483 57.5455 61.1733 56.821 59.0085 56.821C55.7528 56.821 53.179 58.4403 51.2869 61.679C49.3949 64.9006 48.4403 69.6307 48.4233 75.8693C48.4063 80.0455 48.8239 83.5568 49.6761 86.4034C50.5455 89.25 51.7727 91.3977 53.358 92.8466C54.9432 94.2784 56.8267 94.9943 59.0085 94.9943ZM105.856 48.9205C108.362 48.9375 110.799 49.3807 113.168 50.25C115.555 51.1023 117.702 52.5 119.612 54.4432C121.521 56.3693 123.038 58.9517 124.163 62.1903C125.288 65.429 125.85 69.4347 125.85 74.2074C125.867 78.7074 125.39 82.7301 124.418 86.2756C123.464 89.804 122.092 92.7869 120.302 95.2244C118.512 97.6619 116.356 99.5199 113.833 100.798C111.31 102.077 108.472 102.716 105.319 102.716C102.012 102.716 99.0803 102.068 96.5234 100.773C93.9837 99.4773 91.9297 97.7045 90.3615 95.4545C88.7933 93.2045 87.8303 90.6307 87.4723 87.733H96.8047C97.282 89.8125 98.2536 91.4659 99.7195 92.6932C101.202 93.9034 103.069 94.5085 105.319 94.5085C108.95 94.5085 111.745 92.9318 113.705 89.7784C115.665 86.625 116.646 82.2443 116.646 76.6364H116.288C115.452 78.1364 114.37 79.4318 113.04 80.5227C111.711 81.5966 110.202 82.4233 108.515 83.0028C106.844 83.5824 105.072 83.8722 103.197 83.8722C100.129 83.8722 97.3672 83.1392 94.9126 81.6733C92.4751 80.2074 90.5405 78.196 89.1087 75.6392C87.6939 73.0824 86.978 70.1591 86.9609 66.8693C86.9609 63.4602 87.745 60.4006 89.3132 57.6903C90.8984 54.9631 93.1058 52.8153 95.9354 51.2472C98.7649 49.6619 102.072 48.8864 105.856 48.9205ZM105.881 56.5909C104.04 56.5909 102.379 57.0426 100.896 57.946C99.4297 58.8324 98.2706 60.0426 97.4183 61.5767C96.5831 63.0937 96.1655 64.7898 96.1655 66.6648C96.1825 68.5227 96.6001 70.2102 97.4183 71.7273C98.2536 73.2443 99.3871 74.446 100.819 75.3324C102.268 76.2187 103.921 76.6619 105.779 76.6619C107.16 76.6619 108.447 76.3977 109.64 75.8693C110.833 75.3409 111.873 74.608 112.759 73.6705C113.663 72.7159 114.362 71.6335 114.856 70.4233C115.367 69.2131 115.614 67.9347 115.597 66.5881C115.597 64.7983 115.171 63.1449 114.319 61.6278C113.484 60.1108 112.333 58.892 110.867 57.9716C109.418 57.0511 107.756 56.5909 105.881 56.5909Z" fill="white"/>
</g>
<g filter="url(#filter1_d_10_3944)">
<circle cx="136.75" cy="54.75" r="6.75" fill="#292E49"/>
<circle cx="136.75" cy="54.75" r="5.25" stroke="white" stroke-width="3"/>
</g>
<g filter="url(#filter2_d_10_3944)">
<path d="M141.344 102.288C139.488 102.288 137.776 101.952 136.208 101.28C134.64 100.576 133.392 99.456 132.464 97.92C131.536 96.384 131.072 94.352 131.072 91.824V77.376C131.072 74.848 131.536 72.816 132.464 71.28C133.424 69.744 134.688 68.64 136.256 67.968C137.824 67.264 139.536 66.912 141.392 66.912C143.568 66.912 145.424 67.28 146.96 68.016C148.496 68.752 149.68 69.76 150.512 71.04C151.344 72.288 151.76 73.696 151.76 75.264C151.76 76.16 151.584 76.752 151.232 77.04C150.912 77.328 150.416 77.472 149.744 77.472C149.104 77.472 148.608 77.344 148.256 77.088C147.936 76.832 147.76 76.496 147.728 76.08C147.696 75.6 147.6 75.056 147.44 74.448C147.312 73.808 147.024 73.2 146.576 72.624C146.16 72.016 145.536 71.52 144.704 71.136C143.904 70.752 142.832 70.56 141.488 70.56C139.44 70.56 137.856 71.12 136.736 72.24C135.648 73.328 135.104 75.04 135.104 77.376V91.824C135.104 94.16 135.664 95.888 136.784 97.008C137.904 98.096 139.52 98.64 141.632 98.64C142.976 98.64 144.032 98.448 144.8 98.064C145.6 97.68 146.192 97.2 146.576 96.624C146.96 96.048 147.232 95.44 147.392 94.8C147.552 94.128 147.664 93.504 147.728 92.928C147.76 92.448 147.952 92.096 148.304 91.872C148.656 91.648 149.136 91.536 149.744 91.536C150.416 91.536 150.912 91.696 151.232 92.016C151.584 92.304 151.76 92.896 151.76 93.792C151.76 95.36 151.328 96.8 150.464 98.112C149.632 99.392 148.432 100.416 146.864 101.184C145.328 101.92 143.488 102.288 141.344 102.288Z" fill="white"/>
</g>
<path d="M170.568 50.392V48.3636H180.125V50.392H176.562V60H174.131V50.392H170.568ZM186.062 56.2841V51.2727H188.483V60H186.159V58.4148H186.068C185.871 58.9261 185.544 59.3371 185.085 59.6477C184.631 59.9583 184.076 60.1136 183.42 60.1136C182.837 60.1136 182.324 59.9811 181.881 59.7159C181.438 59.4508 181.091 59.0739 180.841 58.5852C180.595 58.0966 180.47 57.5114 180.466 56.8295V51.2727H182.886V56.3977C182.89 56.9129 183.028 57.3201 183.301 57.6193C183.574 57.9186 183.939 58.0682 184.398 58.0682C184.689 58.0682 184.962 58.0019 185.216 57.8693C185.47 57.733 185.674 57.5322 185.83 57.267C185.989 57.0019 186.066 56.6742 186.062 56.2841ZM194.396 60.1705C193.499 60.1705 192.726 59.9886 192.078 59.625C191.434 59.2576 190.938 58.7386 190.589 58.0682C190.241 57.3939 190.067 56.5966 190.067 55.6761C190.067 54.7784 190.241 53.9905 190.589 53.3125C190.938 52.6345 191.429 52.1061 192.061 51.7273C192.697 51.3485 193.444 51.1591 194.3 51.1591C194.875 51.1591 195.411 51.2519 195.908 51.4375C196.408 51.6193 196.843 51.8939 197.214 52.2614C197.589 52.6288 197.881 53.0909 198.089 53.6477C198.298 54.2008 198.402 54.8485 198.402 55.5909V56.2557H191.033V54.7557H196.124C196.124 54.4072 196.048 54.0985 195.896 53.8295C195.745 53.5606 195.535 53.3504 195.266 53.1989C195 53.0436 194.692 52.9659 194.339 52.9659C193.972 52.9659 193.646 53.0511 193.362 53.2216C193.082 53.3883 192.862 53.6136 192.703 53.8977C192.544 54.178 192.463 54.4905 192.459 54.8352V56.2614C192.459 56.6932 192.538 57.0663 192.697 57.3807C192.86 57.6951 193.089 57.9375 193.385 58.108C193.68 58.2784 194.031 58.3636 194.436 58.3636C194.705 58.3636 194.951 58.3258 195.175 58.25C195.398 58.1742 195.589 58.0606 195.749 57.9091C195.908 57.7576 196.029 57.572 196.112 57.3523L198.351 57.5C198.237 58.0379 198.004 58.5076 197.652 58.9091C197.304 59.3068 196.853 59.6174 196.3 59.8409C195.75 60.0606 195.116 60.1705 194.396 60.1705ZM207.243 53.7614L205.027 53.8977C204.989 53.7083 204.908 53.5379 204.783 53.3864C204.658 53.2311 204.493 53.108 204.288 53.017C204.088 52.9223 203.847 52.875 203.567 52.875C203.192 52.875 202.875 52.9545 202.618 53.1136C202.36 53.2689 202.232 53.4773 202.232 53.7386C202.232 53.947 202.315 54.1231 202.482 54.267C202.648 54.411 202.934 54.5265 203.339 54.6136L204.919 54.9318C205.768 55.1061 206.4 55.3864 206.817 55.7727C207.233 56.1591 207.442 56.6667 207.442 57.2955C207.442 57.8674 207.273 58.3693 206.936 58.8011C206.603 59.233 206.144 59.5701 205.561 59.8125C204.982 60.0511 204.313 60.1705 203.555 60.1705C202.4 60.1705 201.48 59.9299 200.794 59.4489C200.112 58.964 199.713 58.3049 199.595 57.4716L201.976 57.3466C202.048 57.6989 202.222 57.9678 202.499 58.1534C202.775 58.3352 203.129 58.4261 203.561 58.4261C203.985 58.4261 204.326 58.3447 204.584 58.1818C204.845 58.0152 204.978 57.8011 204.982 57.5398C204.978 57.3201 204.885 57.1402 204.703 57C204.521 56.8561 204.241 56.7462 203.862 56.6705L202.351 56.3693C201.499 56.1989 200.864 55.9034 200.447 55.483C200.035 55.0625 199.828 54.5265 199.828 53.875C199.828 53.3144 199.98 52.8314 200.283 52.4261C200.589 52.0208 201.019 51.7083 201.572 51.4886C202.129 51.2689 202.781 51.1591 203.527 51.1591C204.629 51.1591 205.497 51.392 206.129 51.858C206.766 52.3239 207.137 52.9583 207.243 53.7614ZM212.182 60.142C211.519 60.142 210.919 59.9716 210.381 59.6307C209.847 59.286 209.422 58.7803 209.108 58.1136C208.797 57.4432 208.642 56.6212 208.642 55.6477C208.642 54.6477 208.803 53.8163 209.125 53.1534C209.447 52.4867 209.875 51.9886 210.409 51.6591C210.947 51.3258 211.536 51.1591 212.176 51.1591C212.665 51.1591 213.072 51.2424 213.398 51.4091C213.727 51.572 213.992 51.7765 214.193 52.0227C214.398 52.2652 214.553 52.5038 214.659 52.7386H214.733V48.3636H217.148V60H214.761V58.6023H214.659C214.545 58.8447 214.384 59.0852 214.176 59.3239C213.972 59.5587 213.705 59.7538 213.375 59.9091C213.049 60.0644 212.652 60.142 212.182 60.142ZM212.949 58.2159C213.339 58.2159 213.669 58.1098 213.938 57.8977C214.21 57.6818 214.419 57.3807 214.562 56.9943C214.71 56.608 214.784 56.1553 214.784 55.6364C214.784 55.1174 214.712 54.6667 214.568 54.2841C214.424 53.9015 214.216 53.6061 213.943 53.3977C213.67 53.1894 213.339 53.0852 212.949 53.0852C212.551 53.0852 212.216 53.1932 211.943 53.4091C211.67 53.625 211.464 53.9242 211.324 54.3068C211.184 54.6894 211.114 55.1326 211.114 55.6364C211.114 56.1439 211.184 56.5928 211.324 56.983C211.468 57.3693 211.674 57.6723 211.943 57.892C212.216 58.108 212.551 58.2159 212.949 58.2159ZM221.626 60.1648C221.07 60.1648 220.573 60.0682 220.138 59.875C219.702 59.678 219.357 59.3883 219.104 59.0057C218.854 58.6193 218.729 58.1383 218.729 57.5625C218.729 57.0777 218.818 56.6705 218.996 56.3409C219.174 56.0114 219.416 55.7462 219.723 55.5455C220.03 55.3447 220.378 55.1932 220.768 55.0909C221.162 54.9886 221.575 54.9167 222.007 54.875C222.515 54.822 222.924 54.7727 223.234 54.7273C223.545 54.678 223.77 54.6061 223.911 54.5114C224.051 54.4167 224.121 54.2765 224.121 54.0909V54.0568C224.121 53.697 224.007 53.4186 223.78 53.2216C223.556 53.0246 223.238 52.9261 222.825 52.9261C222.39 52.9261 222.043 53.0227 221.786 53.2159C221.528 53.4053 221.357 53.6439 221.274 53.9318L219.036 53.75C219.149 53.2197 219.373 52.7614 219.706 52.375C220.039 51.9848 220.469 51.6856 220.996 51.4773C221.526 51.2652 222.14 51.1591 222.837 51.1591C223.321 51.1591 223.786 51.2159 224.229 51.3295C224.676 51.4432 225.071 51.6193 225.416 51.858C225.765 52.0966 226.039 52.4034 226.24 52.7784C226.441 53.1496 226.541 53.5947 226.541 54.1136V60H224.246V58.7898H224.178C224.037 59.0625 223.85 59.303 223.615 59.5114C223.38 59.7159 223.098 59.8769 222.768 59.9943C222.439 60.108 222.058 60.1648 221.626 60.1648ZM222.32 58.4943C222.676 58.4943 222.99 58.4242 223.263 58.2841C223.536 58.1402 223.75 57.947 223.905 57.7045C224.06 57.4621 224.138 57.1875 224.138 56.8807V55.9545C224.062 56.0038 223.958 56.0492 223.825 56.0909C223.696 56.1288 223.551 56.1648 223.388 56.1989C223.225 56.2292 223.062 56.2576 222.899 56.2841C222.736 56.3068 222.589 56.3277 222.456 56.3466C222.172 56.3883 221.924 56.4545 221.712 56.5455C221.5 56.6364 221.335 56.7595 221.217 56.9148C221.1 57.0663 221.041 57.2557 221.041 57.483C221.041 57.8125 221.161 58.0644 221.399 58.2386C221.642 58.4091 221.948 58.4943 222.32 58.4943ZM229.601 63.2727C229.294 63.2727 229.006 63.2481 228.737 63.1989C228.472 63.1534 228.252 63.0947 228.078 63.0227L228.624 61.2159C228.908 61.303 229.163 61.3504 229.391 61.358C229.622 61.3655 229.821 61.3125 229.987 61.1989C230.158 61.0852 230.296 60.892 230.402 60.6193L230.544 60.25L227.413 51.2727H229.959L231.766 57.6818H231.857L233.68 51.2727H236.243L232.851 60.9432C232.688 61.4129 232.466 61.822 232.186 62.1705C231.91 62.5227 231.559 62.7936 231.135 62.983C230.711 63.1761 230.199 63.2727 229.601 63.2727ZM239.565 58.4091L239.503 59.0341C239.454 59.5341 239.359 60.0322 239.219 60.5284C239.082 61.0284 238.938 61.4811 238.787 61.8864C238.639 62.2917 238.52 62.6098 238.429 62.8409H236.861C236.918 62.6174 236.995 62.3049 237.094 61.9034C237.192 61.5057 237.285 61.0587 237.372 60.5625C237.459 60.0663 237.514 59.5606 237.537 59.0455L237.565 58.4091H239.565ZM244.912 60V58.2273L249.054 54.392C249.406 54.0511 249.702 53.7443 249.94 53.4716C250.183 53.1989 250.366 52.9318 250.491 52.6705C250.616 52.4053 250.679 52.1193 250.679 51.8125C250.679 51.4716 250.601 51.178 250.446 50.9318C250.291 50.6818 250.079 50.4905 249.81 50.358C249.541 50.2216 249.236 50.1534 248.895 50.1534C248.539 50.1534 248.228 50.2254 247.963 50.3693C247.698 50.5133 247.493 50.7197 247.349 50.9886C247.205 51.2576 247.134 51.5777 247.134 51.9489H244.798C244.798 51.1875 244.971 50.5265 245.315 49.9659C245.66 49.4053 246.143 48.9716 246.764 48.6648C247.385 48.358 248.101 48.2045 248.912 48.2045C249.745 48.2045 250.471 48.3523 251.088 48.6477C251.709 48.9394 252.192 49.3447 252.537 49.8636C252.882 50.3826 253.054 50.9773 253.054 51.6477C253.054 52.0871 252.967 52.5208 252.793 52.9489C252.622 53.3769 252.317 53.8523 251.878 54.375C251.438 54.8939 250.819 55.517 250.02 56.2443L248.321 57.9091V57.9886H253.207V60H244.912ZM254.99 60V58.2273L259.132 54.392C259.484 54.0511 259.78 53.7443 260.018 53.4716C260.261 53.1989 260.445 52.9318 260.57 52.6705C260.695 52.4053 260.757 52.1193 260.757 51.8125C260.757 51.4716 260.679 51.178 260.524 50.9318C260.369 50.6818 260.157 50.4905 259.888 50.358C259.619 50.2216 259.314 50.1534 258.973 50.1534C258.617 50.1534 258.306 50.2254 258.041 50.3693C257.776 50.5133 257.571 50.7197 257.428 50.9886C257.284 51.2576 257.212 51.5777 257.212 51.9489H254.876C254.876 51.1875 255.049 50.5265 255.393 49.9659C255.738 49.4053 256.221 48.9716 256.842 48.6648C257.464 48.358 258.179 48.2045 258.99 48.2045C259.823 48.2045 260.549 48.3523 261.166 48.6477C261.787 48.9394 262.27 49.3447 262.615 49.8636C262.96 50.3826 263.132 50.9773 263.132 51.6477C263.132 52.0871 263.045 52.5208 262.871 52.9489C262.7 53.3769 262.395 53.8523 261.956 54.375C261.517 54.8939 260.897 55.517 260.098 56.2443L258.399 57.9091V57.9886H263.286V60H254.99ZM270.845 60H268.209L272.226 48.3636H275.396L279.408 60H276.771L273.857 51.0227H273.766L270.845 60ZM270.68 55.4261H276.908V57.3466H270.68V55.4261ZM280.763 63.2727V51.2727H283.149V52.7386H283.257C283.363 52.5038 283.517 52.2652 283.717 52.0227C283.922 51.7765 284.187 51.572 284.513 51.4091C284.842 51.2424 285.251 51.1591 285.74 51.1591C286.376 51.1591 286.964 51.3258 287.501 51.6591C288.039 51.9886 288.469 52.4867 288.791 53.1534C289.113 53.8163 289.274 54.6477 289.274 55.6477C289.274 56.6212 289.117 57.4432 288.803 58.1136C288.492 58.7803 288.068 59.286 287.53 59.6307C286.996 59.9716 286.397 60.142 285.734 60.142C285.265 60.142 284.865 60.0644 284.536 59.9091C284.21 59.7538 283.943 59.5587 283.734 59.3239C283.526 59.0852 283.367 58.8447 283.257 58.6023H283.183V63.2727H280.763ZM283.132 55.6364C283.132 56.1553 283.204 56.608 283.348 56.9943C283.492 57.3807 283.7 57.6818 283.973 57.8977C284.246 58.1098 284.577 58.2159 284.967 58.2159C285.361 58.2159 285.695 58.108 285.967 57.892C286.24 57.6723 286.446 57.3693 286.587 56.983C286.731 56.5928 286.803 56.1439 286.803 55.6364C286.803 55.1326 286.732 54.6894 286.592 54.3068C286.452 53.9242 286.246 53.625 285.973 53.4091C285.7 53.1932 285.365 53.0852 284.967 53.0852C284.573 53.0852 284.24 53.1894 283.967 53.3977C283.698 53.6061 283.492 53.9015 283.348 54.2841C283.204 54.6667 283.132 55.1174 283.132 55.6364ZM290.888 60V51.2727H293.234V52.7955H293.325C293.484 52.2538 293.751 51.8447 294.126 51.5682C294.501 51.2879 294.933 51.1477 295.422 51.1477C295.543 51.1477 295.674 51.1553 295.814 51.1705C295.954 51.1856 296.077 51.2064 296.183 51.233V53.3807C296.07 53.3466 295.912 53.3163 295.712 53.2898C295.511 53.2633 295.327 53.25 295.161 53.25C294.804 53.25 294.486 53.3277 294.206 53.483C293.929 53.6345 293.71 53.8466 293.547 54.1193C293.388 54.392 293.308 54.7064 293.308 55.0625V60H290.888ZM297.435 60V51.2727H299.855V60H297.435ZM298.651 50.1477C298.291 50.1477 297.982 50.0284 297.724 49.7898C297.471 49.5473 297.344 49.2576 297.344 48.9205C297.344 48.5871 297.471 48.3011 297.724 48.0625C297.982 47.8201 298.291 47.6989 298.651 47.6989C299.01 47.6989 299.317 47.8201 299.571 48.0625C299.829 48.3011 299.957 48.5871 299.957 48.9205C299.957 49.2576 299.829 49.5473 299.571 49.7898C299.317 50.0284 299.01 50.1477 298.651 50.1477ZM304.214 48.3636V60H301.794V48.3636H304.214Z" fill="white"/>
<path d="M170 82.98H184V68.98H170V82.98ZM192.529 82V71.8182H194.065V80.6776H198.679V82H192.529ZM200.312 82V74.3636H201.798V82H200.312ZM201.062 73.1854C200.804 73.1854 200.582 73.0992 200.396 72.9268C200.214 72.7512 200.123 72.5424 200.123 72.3004C200.123 72.0552 200.214 71.8464 200.396 71.674C200.582 71.4983 200.804 71.4105 201.062 71.4105C201.321 71.4105 201.541 71.4983 201.724 71.674C201.909 71.8464 202.002 72.0552 202.002 72.3004C202.002 72.5424 201.909 72.7512 201.724 72.9268C201.541 73.0992 201.321 73.1854 201.062 73.1854ZM205.285 77.4659V82H203.798V74.3636H205.225V75.6065H205.319C205.495 75.2022 205.77 74.8774 206.145 74.6321C206.523 74.3868 206.998 74.2642 207.572 74.2642C208.092 74.2642 208.548 74.3736 208.939 74.5923C209.33 74.8078 209.633 75.1293 209.849 75.5568C210.064 75.9844 210.172 76.513 210.172 77.1428V82H208.685V77.3217C208.685 76.7682 208.541 76.3357 208.253 76.0241C207.964 75.7093 207.568 75.5518 207.064 75.5518C206.72 75.5518 206.413 75.6264 206.145 75.7756C205.88 75.9247 205.669 76.1435 205.513 76.4318C205.361 76.7169 205.285 77.0616 205.285 77.4659ZM213.532 79.4098L213.523 77.5952H213.781L216.824 74.3636H218.604L215.133 78.0426H214.9L213.532 79.4098ZM212.165 82V71.8182H213.652V82H212.165ZM216.988 82L214.253 78.3707L215.278 77.3317L218.812 82H216.988ZM222.86 82.1541C222.145 82.1541 221.52 81.9901 220.986 81.6619C220.453 81.3338 220.038 80.8748 219.743 80.2848C219.448 79.6948 219.301 79.0054 219.301 78.2166C219.301 77.4245 219.448 76.7318 219.743 76.1385C220.038 75.5452 220.453 75.0845 220.986 74.7564C221.52 74.4283 222.145 74.2642 222.86 74.2642C223.576 74.2642 224.201 74.4283 224.735 74.7564C225.268 75.0845 225.683 75.5452 225.978 76.1385C226.273 76.7318 226.42 77.4245 226.42 78.2166C226.42 79.0054 226.273 79.6948 225.978 80.2848C225.683 80.8748 225.268 81.3338 224.735 81.6619C224.201 81.9901 223.576 82.1541 222.86 82.1541ZM222.865 80.9062C223.329 80.9062 223.714 80.7836 224.019 80.5384C224.324 80.2931 224.549 79.9666 224.695 79.5589C224.844 79.1513 224.919 78.7022 224.919 78.2116C224.919 77.7244 224.844 77.277 224.695 76.8693C224.549 76.4583 224.324 76.1286 224.019 75.88C223.714 75.6314 223.329 75.5071 222.865 75.5071C222.398 75.5071 222.01 75.6314 221.702 75.88C221.397 76.1286 221.17 76.4583 221.021 76.8693C220.875 77.277 220.802 77.7244 220.802 78.2116C220.802 78.7022 220.875 79.1513 221.021 79.5589C221.17 79.9666 221.397 80.2931 221.702 80.5384C222.01 80.7836 222.398 80.9062 222.865 80.9062ZM228.079 84.8636V74.3636H229.531V75.6016H229.655C229.742 75.4425 229.866 75.2585 230.028 75.0497C230.191 74.8409 230.416 74.6586 230.704 74.5028C230.993 74.3438 231.374 74.2642 231.848 74.2642C232.464 74.2642 233.015 74.42 233.498 74.7315C233.982 75.0431 234.362 75.4922 234.637 76.0788C234.915 76.6655 235.055 77.3714 235.055 78.1967C235.055 79.022 234.917 79.7296 234.642 80.3196C234.367 80.9062 233.989 81.3587 233.508 81.6768C233.028 81.9917 232.479 82.1491 231.863 82.1491C231.399 82.1491 231.019 82.0713 230.724 81.9155C230.433 81.7597 230.204 81.5774 230.038 81.3686C229.872 81.1598 229.745 80.9742 229.655 80.8118H229.566V84.8636H228.079ZM229.536 78.1818C229.536 78.7187 229.614 79.1894 229.77 79.5938C229.925 79.9981 230.151 80.3146 230.446 80.5433C230.741 80.7687 231.102 80.8814 231.53 80.8814C231.974 80.8814 232.345 80.7637 232.643 80.5284C232.942 80.2898 233.167 79.9666 233.319 79.5589C233.475 79.1513 233.553 78.6922 233.553 78.1818C233.553 77.678 233.477 77.2256 233.324 76.8246C233.175 76.4235 232.95 76.107 232.648 75.875C232.35 75.643 231.977 75.527 231.53 75.527C231.099 75.527 230.734 75.638 230.436 75.8601C230.141 76.0821 229.917 76.392 229.765 76.7898C229.612 77.1875 229.536 77.6515 229.536 78.1818ZM236.72 82V74.3636H238.206V82H236.72ZM237.471 73.1854C237.212 73.1854 236.99 73.0992 236.805 72.9268C236.622 72.7512 236.531 72.5424 236.531 72.3004C236.531 72.0552 236.622 71.8464 236.805 71.674C236.99 71.4983 237.212 71.4105 237.471 71.4105C237.729 71.4105 237.95 71.4983 238.132 71.674C238.318 71.8464 238.41 72.0552 238.41 72.3004C238.41 72.5424 238.318 72.7512 238.132 72.9268C237.95 73.0992 237.729 73.1854 237.471 73.1854ZM241.693 77.4659V82H240.206V74.3636H241.633V75.6065H241.728C241.903 75.2022 242.178 74.8774 242.553 74.6321C242.931 74.3868 243.406 74.2642 243.98 74.2642C244.5 74.2642 244.956 74.3736 245.347 74.5923C245.738 74.8078 246.041 75.1293 246.257 75.5568C246.472 75.9844 246.58 76.513 246.58 77.1428V82H245.093V77.3217C245.093 76.7682 244.949 76.3357 244.661 76.0241C244.373 75.7093 243.976 75.5518 243.473 75.5518C243.128 75.5518 242.821 75.6264 242.553 75.7756C242.288 75.9247 242.077 76.1435 241.922 76.4318C241.769 76.7169 241.693 77.0616 241.693 77.4659ZM251.775 85.0227C251.169 85.0227 250.647 84.9432 250.209 84.7841C249.775 84.625 249.42 84.4145 249.145 84.1527C248.87 83.8909 248.665 83.6042 248.529 83.2926L249.806 82.7656C249.896 82.9115 250.015 83.0656 250.164 83.228C250.317 83.3937 250.522 83.5346 250.781 83.6506C251.043 83.7666 251.379 83.8246 251.79 83.8246C252.354 83.8246 252.819 83.687 253.187 83.4119C253.555 83.1402 253.739 82.706 253.739 82.1094V80.608H253.645C253.555 80.7704 253.426 80.951 253.257 81.1499C253.091 81.3487 252.862 81.5211 252.571 81.6669C252.279 81.8127 251.9 81.8857 251.432 81.8857C250.829 81.8857 250.285 81.7448 249.801 81.4631C249.321 81.178 248.94 80.7588 248.658 80.2053C248.38 79.6484 248.24 78.964 248.24 78.152C248.24 77.34 248.378 76.6439 248.653 76.0639C248.931 75.4839 249.313 75.0398 249.797 74.7315C250.28 74.42 250.829 74.2642 251.442 74.2642C251.916 74.2642 252.299 74.3438 252.591 74.5028C252.882 74.6586 253.109 74.8409 253.272 75.0497C253.437 75.2585 253.565 75.4425 253.654 75.6016H253.764V74.3636H255.221V82.169C255.221 82.8253 255.068 83.3639 254.763 83.7848C254.458 84.2057 254.046 84.5173 253.525 84.7195C253.008 84.9216 252.425 85.0227 251.775 85.0227ZM251.76 80.6527C252.188 80.6527 252.549 80.5533 252.844 80.3544C253.142 80.1522 253.368 79.8639 253.52 79.4893C253.676 79.1115 253.754 78.6591 253.754 78.1321C253.754 77.6184 253.678 77.166 253.525 76.7749C253.373 76.3838 253.149 76.0788 252.854 75.8601C252.559 75.638 252.194 75.527 251.76 75.527C251.313 75.527 250.94 75.643 250.642 75.875C250.343 76.1037 250.118 76.4152 249.966 76.8097C249.816 77.2041 249.742 77.6449 249.742 78.1321C249.742 78.6326 249.818 79.0717 249.971 79.4496C250.123 79.8274 250.348 80.1224 250.647 80.3345C250.948 80.5466 251.319 80.6527 251.76 80.6527Z" fill="white"/>
<path d="M170 102.84H182V90.84H170V102.84ZM200.328 97.6364C200.328 98.5369 200.172 99.3239 199.859 99.9972C199.547 100.668 199.112 101.189 198.555 101.561C198.001 101.933 197.362 102.119 196.638 102.119C195.911 102.119 195.268 101.933 194.712 101.561C194.158 101.186 193.724 100.663 193.412 99.9929C193.099 99.3196 192.943 98.5341 192.943 97.6364C192.943 96.7358 193.099 95.9503 193.412 95.2798C193.727 94.6094 194.162 94.0881 194.716 93.7159C195.27 93.3409 195.911 93.1534 196.638 93.1534C197.362 93.1534 198.001 93.3395 198.555 93.7116C199.112 94.0838 199.547 94.6065 199.859 95.2798C200.172 95.9503 200.328 96.7358 200.328 97.6364ZM199.808 97.6364C199.808 96.8267 199.672 96.125 199.399 95.5312C199.129 94.9375 198.756 94.4787 198.278 94.1548C197.801 93.8281 197.254 93.6648 196.638 93.6648C196.021 93.6648 195.474 93.8267 194.997 94.1506C194.52 94.4716 194.145 94.9304 193.872 95.527C193.602 96.1207 193.467 96.8239 193.467 97.6364C193.467 98.4403 193.601 99.1406 193.868 99.7372C194.138 100.331 194.511 100.791 194.989 101.118C195.466 101.445 196.016 101.608 196.638 101.608C197.254 101.608 197.801 101.446 198.278 101.122C198.756 100.795 199.129 100.335 199.399 99.7415C199.672 99.1477 199.808 98.446 199.808 97.6364ZM207.012 95.4545L204.647 102H204.059L201.694 95.4545H202.252L204.332 101.331H204.374L206.454 95.4545H207.012ZM210.955 102.136C210.364 102.136 209.85 101.99 209.412 101.697C208.975 101.405 208.637 101.004 208.398 100.496C208.159 99.9872 208.04 99.4077 208.04 98.7571C208.04 98.1037 208.159 97.5213 208.398 97.0099C208.64 96.4986 208.971 96.0952 209.391 95.7997C209.811 95.5043 210.292 95.3565 210.831 95.3565C211.198 95.3565 211.544 95.4304 211.871 95.5781C212.201 95.723 212.49 95.9332 212.74 96.2088C212.993 96.4844 213.191 96.8168 213.333 97.206C213.478 97.5952 213.55 98.0327 213.55 98.5185V98.8423H208.368V98.3693H213.03C213.03 97.8949 212.934 97.4673 212.74 97.0866C212.547 96.706 212.284 96.4034 211.952 96.179C211.62 95.9545 211.246 95.8423 210.831 95.8423C210.397 95.8423 210.009 95.9645 209.668 96.2088C209.33 96.4503 209.061 96.777 208.863 97.1889C208.667 97.6009 208.564 98.0611 208.556 98.5696V98.7827C208.556 99.3281 208.651 99.8182 208.841 100.253C209.034 100.685 209.31 101.027 209.668 101.28C210.026 101.53 210.455 101.655 210.955 101.655C211.313 101.655 211.618 101.595 211.871 101.476C212.127 101.354 212.336 101.206 212.498 101.033C212.659 100.859 212.782 100.692 212.864 100.53L213.337 100.722C213.238 100.94 213.083 101.159 212.873 101.378C212.665 101.594 212.401 101.774 212.08 101.919C211.762 102.064 211.387 102.136 210.955 102.136ZM215.34 102V95.4545H215.847V96.4773H215.894C216.036 96.142 216.276 95.8736 216.614 95.6719C216.952 95.4673 217.337 95.3651 217.769 95.3651C217.814 95.3651 217.86 95.3651 217.905 95.3651C217.951 95.3651 217.993 95.3665 218.033 95.3693V95.8935C217.999 95.8906 217.958 95.8864 217.909 95.8807C217.864 95.8722 217.807 95.8679 217.739 95.8679C217.375 95.8679 217.051 95.946 216.767 96.1023C216.486 96.2585 216.265 96.4744 216.103 96.75C215.941 97.0227 215.86 97.3352 215.86 97.6875V102H215.34ZM221.685 102.136C221.128 102.136 220.638 101.99 220.215 101.697C219.792 101.402 219.461 100.999 219.222 100.487C218.986 99.9759 218.868 99.3963 218.868 98.7486C218.868 98.1009 218.988 97.5213 219.226 97.0099C219.465 96.4986 219.796 96.0952 220.219 95.7997C220.642 95.5043 221.13 95.3565 221.681 95.3565C222.096 95.3565 222.473 95.4418 222.814 95.6122C223.158 95.7827 223.442 96.0199 223.667 96.3239C223.894 96.6278 224.039 96.9801 224.101 97.3807H223.573C223.488 96.9375 223.275 96.571 222.934 96.2812C222.596 95.9886 222.179 95.8423 221.685 95.8423C221.242 95.8423 220.847 95.9673 220.5 96.2173C220.154 96.4645 219.881 96.8068 219.682 97.2443C219.483 97.679 219.384 98.1776 219.384 98.7401C219.384 99.294 219.48 99.7912 219.674 100.232C219.867 100.669 220.137 101.016 220.483 101.271C220.83 101.527 221.23 101.655 221.685 101.655C222.006 101.655 222.299 101.591 222.563 101.463C222.83 101.335 223.053 101.153 223.232 100.918C223.411 100.682 223.529 100.406 223.586 100.091H224.114C224.051 100.494 223.909 100.849 223.688 101.156C223.466 101.463 223.184 101.703 222.84 101.876C222.496 102.05 222.111 102.136 221.685 102.136ZM227.621 102.141C227.243 102.141 226.897 102.065 226.581 101.915C226.269 101.764 226.017 101.544 225.827 101.254C225.64 100.964 225.546 100.612 225.546 100.197C225.546 99.9247 225.594 99.6847 225.691 99.4773C225.787 99.2699 225.936 99.0909 226.138 98.9403C226.34 98.7898 226.598 98.6662 226.914 98.5696C227.229 98.4702 227.605 98.3935 228.043 98.3395C228.375 98.2997 228.672 98.2614 228.934 98.2244C229.195 98.1847 229.4 98.1236 229.547 98.0412C229.698 97.9588 229.773 97.8338 229.773 97.6662V97.3935C229.773 96.9162 229.623 96.5369 229.321 96.2557C229.02 95.9744 228.605 95.8338 228.077 95.8338C227.608 95.8338 227.213 95.9375 226.892 96.1449C226.574 96.3494 226.351 96.6136 226.223 96.9375L225.733 96.7543C225.858 96.4418 226.039 96.1818 226.275 95.9744C226.513 95.767 226.786 95.6122 227.093 95.5099C227.402 95.4077 227.726 95.3565 228.064 95.3565C228.357 95.3565 228.635 95.3977 228.9 95.4801C229.167 95.5625 229.404 95.6875 229.611 95.8551C229.821 96.0227 229.988 96.2372 230.11 96.4986C230.232 96.7571 230.293 97.0668 230.293 97.4276V102H229.773V100.82H229.735C229.621 101.064 229.465 101.287 229.266 101.489C229.07 101.688 228.833 101.847 228.554 101.966C228.279 102.082 227.968 102.141 227.621 102.141ZM227.672 101.659C228.081 101.659 228.444 101.56 228.759 101.361C229.077 101.159 229.326 100.884 229.505 100.534C229.684 100.185 229.773 99.7884 229.773 99.3452V98.3821C229.708 98.4389 229.613 98.4901 229.488 98.5355C229.365 98.5781 229.226 98.6165 229.07 98.6506C228.917 98.6818 228.755 98.7102 228.584 98.7358C228.417 98.7585 228.253 98.7798 228.094 98.7997C227.617 98.8565 227.228 98.9446 226.926 99.0639C226.628 99.1804 226.409 99.3338 226.27 99.5241C226.134 99.7145 226.066 99.9446 226.066 100.214C226.066 100.661 226.219 101.013 226.526 101.271C226.833 101.53 227.215 101.659 227.672 101.659ZM236.632 96.8651L236.15 96.9929C236.074 96.7543 235.964 96.5483 235.822 96.375C235.68 96.2017 235.501 96.0682 235.285 95.9744C235.072 95.8778 234.816 95.8295 234.518 95.8295C234.038 95.8295 233.645 95.9489 233.338 96.1875C233.034 96.4261 232.882 96.7372 232.882 97.1207C232.882 97.4332 232.985 97.6918 233.193 97.8963C233.4 98.098 233.717 98.2514 234.143 98.3565L235.149 98.608C235.666 98.7358 236.055 98.9432 236.316 99.2301C236.578 99.5142 236.708 99.8679 236.708 100.291C236.708 100.652 236.61 100.972 236.414 101.25C236.218 101.528 235.947 101.746 235.6 101.902C235.257 102.058 234.856 102.136 234.399 102.136C233.788 102.136 233.287 101.994 232.895 101.71C232.502 101.423 232.251 101.013 232.14 100.479L232.639 100.351C232.733 100.777 232.927 101.102 233.223 101.327C233.521 101.548 233.912 101.659 234.395 101.659C234.929 101.659 235.359 101.533 235.686 101.28C236.015 101.027 236.18 100.703 236.18 100.308C236.18 100.007 236.083 99.7528 235.89 99.5455C235.697 99.3381 235.404 99.1861 235.012 99.0895L233.968 98.8338C233.434 98.7031 233.034 98.4943 232.767 98.2074C232.5 97.9176 232.366 97.5611 232.366 97.1378C232.366 96.7855 232.458 96.4759 232.643 96.2088C232.828 95.9418 233.082 95.733 233.406 95.5824C233.73 95.4318 234.1 95.3565 234.518 95.3565C235.072 95.3565 235.524 95.4872 235.873 95.7486C236.223 96.0099 236.475 96.3821 236.632 96.8651ZM240.822 95.4545V95.919H237.962V95.4545H240.822ZM238.93 93.8864H239.445V100.453C239.445 100.72 239.496 100.939 239.599 101.109C239.704 101.277 239.84 101.402 240.008 101.484C240.178 101.564 240.36 101.604 240.553 101.604C240.647 101.604 240.728 101.597 240.796 101.582C240.867 101.568 240.934 101.55 240.996 101.527L241.124 102C241.045 102.028 240.957 102.053 240.86 102.072C240.763 102.095 240.65 102.107 240.519 102.107C240.246 102.107 239.988 102.045 239.744 101.923C239.502 101.801 239.306 101.624 239.156 101.391C239.005 101.158 238.93 100.876 238.93 100.547V93.8864ZM252.956 96H252.411C252.354 95.7045 252.247 95.419 252.091 95.1435C251.935 94.8651 251.733 94.6151 251.486 94.3935C251.241 94.169 250.957 93.9915 250.634 93.8608C250.31 93.7301 249.952 93.6648 249.56 93.6648C248.986 93.6648 248.457 93.8182 247.974 94.125C247.494 94.429 247.109 94.8764 246.82 95.4673C246.533 96.0582 246.389 96.7812 246.389 97.6364C246.389 98.4972 246.533 99.223 246.82 99.8139C247.109 100.405 247.494 100.852 247.974 101.156C248.457 101.457 248.986 101.608 249.56 101.608C249.952 101.608 250.31 101.544 250.634 101.416C250.957 101.286 251.241 101.109 251.486 100.888C251.733 100.663 251.935 100.412 252.091 100.134C252.247 99.8551 252.354 99.5682 252.411 99.2727H252.956C252.893 99.625 252.773 99.9702 252.594 100.308C252.418 100.646 252.185 100.953 251.895 101.229C251.608 101.501 251.268 101.719 250.876 101.881C250.487 102.04 250.048 102.119 249.56 102.119C248.832 102.119 248.192 101.935 247.638 101.565C247.084 101.193 246.649 100.67 246.334 99.9972C246.021 99.3239 245.865 98.5369 245.865 97.6364C245.865 96.7358 246.021 95.9489 246.334 95.2756C246.649 94.6023 247.084 94.081 247.638 93.7116C248.192 93.3395 248.832 93.1534 249.56 93.1534C250.048 93.1534 250.487 93.2344 250.876 93.3963C251.268 93.5554 251.608 93.7713 251.895 94.044C252.185 94.3139 252.418 94.6179 252.594 94.956C252.773 95.294 252.893 95.642 252.956 96ZM255.34 93.2727V102H254.82V93.2727H255.34ZM259.925 102.136C259.386 102.136 258.906 101.991 258.485 101.702C258.065 101.409 257.734 101.007 257.492 100.496C257.251 99.9844 257.13 99.402 257.13 98.7486C257.13 98.0923 257.251 97.5099 257.492 97.0014C257.734 96.4901 258.065 96.0881 258.485 95.7955C258.906 95.5028 259.386 95.3565 259.925 95.3565C260.465 95.3565 260.945 95.5028 261.366 95.7955C261.786 96.0881 262.117 96.4901 262.359 97.0014C262.6 97.5128 262.721 98.0952 262.721 98.7486C262.721 99.402 262.6 99.9844 262.359 100.496C262.117 101.007 261.786 101.409 261.366 101.702C260.945 101.991 260.465 102.136 259.925 102.136ZM259.925 101.655C260.383 101.655 260.782 101.526 261.123 101.267C261.467 101.009 261.732 100.659 261.92 100.219C262.11 99.7784 262.205 99.2884 262.205 98.7486C262.205 98.2088 262.11 97.7202 261.92 97.2827C261.729 96.8423 261.464 96.4929 261.123 96.2344C260.782 95.973 260.383 95.8423 259.925 95.8423C259.468 95.8423 259.069 95.973 258.728 96.2344C258.387 96.4929 258.121 96.8423 257.931 97.2827C257.741 97.7202 257.646 98.2088 257.646 98.7486C257.646 99.2884 257.739 99.7784 257.927 100.219C258.117 100.659 258.383 101.009 258.724 101.267C259.067 101.526 259.468 101.655 259.925 101.655ZM268.705 99.6776V95.4545H269.225V102H268.705V100.939H268.662C268.509 101.277 268.26 101.553 267.917 101.766C267.576 101.979 267.172 102.085 266.706 102.085C266.277 102.085 265.898 101.991 265.569 101.804C265.239 101.616 264.98 101.351 264.793 101.007C264.605 100.661 264.512 100.249 264.512 99.7713V95.4545H265.032V99.75C265.032 100.295 265.196 100.737 265.526 101.075C265.858 101.411 266.287 101.578 266.813 101.578C267.154 101.578 267.468 101.501 267.755 101.348C268.042 101.195 268.272 100.976 268.445 100.692C268.618 100.405 268.705 100.067 268.705 99.6776ZM273.625 102.136C273.099 102.136 272.64 101.991 272.248 101.702C271.856 101.412 271.552 101.013 271.336 100.504C271.123 99.9929 271.017 99.4062 271.017 98.7443C271.017 98.0881 271.125 97.5057 271.341 96.9972C271.559 96.4858 271.865 96.0852 272.257 95.7955C272.649 95.5028 273.106 95.3565 273.629 95.3565C274.004 95.3565 274.329 95.429 274.605 95.5739C274.883 95.7159 275.116 95.9048 275.304 96.1406C275.494 96.3764 275.639 96.6349 275.738 96.9162H275.789V93.2727H276.305V102H275.802V100.572H275.738C275.633 100.854 275.487 101.114 275.299 101.352C275.112 101.588 274.879 101.778 274.6 101.923C274.322 102.065 273.997 102.136 273.625 102.136ZM273.672 101.655C274.115 101.655 274.494 101.528 274.809 101.276C275.127 101.02 275.37 100.673 275.538 100.236C275.708 99.7955 275.794 99.2969 275.794 98.7401C275.794 98.1832 275.708 97.6875 275.538 97.2528C275.37 96.8153 275.127 96.4716 274.809 96.2216C274.494 95.9687 274.115 95.8423 273.672 95.8423C273.223 95.8423 272.838 95.9702 272.517 96.2259C272.199 96.4787 271.954 96.8239 271.784 97.2614C271.616 97.6989 271.532 98.1918 271.532 98.7401C271.532 99.2884 271.616 99.7827 271.784 100.223C271.954 100.663 272.199 101.013 272.517 101.271C272.838 101.527 273.223 101.655 273.672 101.655ZM282.804 96.8651L282.322 96.9929C282.245 96.7543 282.136 96.5483 281.994 96.375C281.852 96.2017 281.673 96.0682 281.457 95.9744C281.244 95.8778 280.988 95.8295 280.69 95.8295C280.21 95.8295 279.816 95.9489 279.51 96.1875C279.206 96.4261 279.054 96.7372 279.054 97.1207C279.054 97.4332 279.157 97.6918 279.365 97.8963C279.572 98.098 279.889 98.2514 280.315 98.3565L281.321 98.608C281.838 98.7358 282.227 98.9432 282.488 99.2301C282.75 99.5142 282.88 99.8679 282.88 100.291C282.88 100.652 282.782 100.972 282.586 101.25C282.39 101.528 282.119 101.746 281.772 101.902C281.429 102.058 281.028 102.136 280.571 102.136C279.96 102.136 279.458 101.994 279.066 101.71C278.674 101.423 278.423 101.013 278.312 100.479L278.811 100.351C278.904 100.777 279.099 101.102 279.395 101.327C279.693 101.548 280.083 101.659 280.566 101.659C281.1 101.659 281.531 101.533 281.858 101.28C282.187 101.027 282.352 100.703 282.352 100.308C282.352 100.007 282.255 99.7528 282.062 99.5455C281.869 99.3381 281.576 99.1861 281.184 99.0895L280.14 98.8338C279.606 98.7031 279.206 98.4943 278.939 98.2074C278.672 97.9176 278.538 97.5611 278.538 97.1378C278.538 96.7855 278.63 96.4759 278.815 96.2088C279 95.9418 279.254 95.733 279.578 95.5824C279.902 95.4318 280.272 95.3565 280.69 95.3565C281.244 95.3565 281.696 95.4872 282.045 95.7486C282.395 96.0099 282.647 96.3821 282.804 96.8651Z" fill="white"/>
<circle opacity="0.1" cx="391" cy="22" r="86" fill="white"/>
<circle opacity="0.15" cx="390.5" cy="21.5" r="67.5" fill="white"/>
<circle cx="391" cy="23" r="46" fill="#FCE588"/>
</g>
<defs>
<filter id="filter0_d_10_3944" x="34.8352" y="48.8693" width="95.0405" height="62.1279" filterUnits="userSpaceOnUse" color-interpolation-filters="sRGB">
<feFlood flood-opacity="0" result="BackgroundImageFix"/>
<feColorMatrix in="SourceAlpha" type="matrix" values="0 0 0 0 0 0 0 0 0 0 0 0 0 0 0 0 0 0 127 0" result="hardAlpha"/>
<feOffset dy="4"/>
<feGaussianBlur stdDeviation="2"/>
<feColorMatrix type="matrix" values="0 0 0 0 0 0 0 0 0 0 0 0 0 0 0 0 0 0 0.1 0"/>
<feBlend mode="normal" in2="BackgroundImageFix" result="effect1_dropShadow_10_3944"/>
<feBlend mode="normal" in="SourceGraphic" in2="effect1_dropShadow_10_3944" result="shape"/>
</filter>
<filter id="filter1_d_10_3944" x="126" y="48" width="21.5" height="21.5" filterUnits="userSpaceOnUse" color-interpolation-filters="sRGB">
<feFlood flood-opacity="0" result="BackgroundImageFix"/>
<feColorMatrix in="SourceAlpha" type="matrix" values="0 0 0 0 0 0 0 0 0 0 0 0 0 0 0 0 0 0 127 0" result="hardAlpha"/>
<feOffset dy="4"/>
<feGaussianBlur stdDeviation="2"/>
<feColorMatrix type="matrix" values="0 0 0 0 0 0 0 0 0 0 0 0 0 0 0 0 0 0 0.1 0"/>
<feBlend mode="normal" in2="BackgroundImageFix" result="effect1_dropShadow_10_3944"/>
<feBlend mode="normal" in="SourceGraphic" in2="effect1_dropShadow_10_3944" result="shape"/>
</filter>
<filter id="filter2_d_10_3944" x="127.072" y="66.912" width="28.688" height="43.376" filterUnits="userSpaceOnUse" color-interpolation-filters="sRGB">
<feFlood flood-opacity="0" result="BackgroundImageFix"/>
<feColorMatrix in="SourceAlpha" type="matrix" values="0 0 0 0 0 0 0 0 0 0 0 0 0 0 0 0 0 0 127 0" result="hardAlpha"/>
<feOffset dy="4"/>
<feGaussianBlur stdDeviation="2"/>
<feColorMatrix type="matrix" values="0 0 0 0 0 0 0 0 0 0 0 0 0 0 0 0 0 0 0.1 0"/>
<feBlend mode="normal" in2="BackgroundImageFix" result="effect1_dropShadow_10_3944"/>
<feBlend mode="normal" in="SourceGraphic" in2="effect1_dropShadow_10_3944" result="shape"/>
</filter>
<clipPath id="clip0_10_3944">
<rect width="472" height="171" rx="10" fill="white"/>
</clipPath>
</defs>
</svg>
